<?xml version="1.0" encoding="utf-8"?>
<!-- Generator: Adobe Illustrator 24.0.0, SVG Export Plug-In . SVG Version: 6.00 Build 0)  -->
<svg version="1.1" id="Layer_1" xmlns="http://www.w3.org/2000/svg" xmlns:xlink="http://www.w3.org/1999/xlink" x="0px" y="0px"
	 viewBox="0 0 1280 1254" style="enable-background:new 0 0 1280 1254;" xml:space="preserve">
<style type="text/css">
	.st0{fill:#F1CDB3;}
</style>
<g transform="translate(0.000000,1254.000000) scale(0.100000,-0.100000)">
	<path class="st0" d="M4269,12526c-178-51-302-126-434-260c-225-228-364-546-411-941c-34-290,2-542,111-772c53-113,91-170,169-251
		c141-147,296-222,463-222c93,0,159,18,263,70c363,182,619,590,686,1090c27,204,9,503-42,677c-82,283-281,510-521,594
		C4479,12537,4333,12545,4269,12526z"/>
	<path class="st0" d="M1880,12492c-243-80-444-319-520-618c-11-41-25-142-32-224c-40-492,129-992,441-1300c124-123,300-229,441-266
		c202-53,468,64,614,270c140,197,206,427,206,721c0,174-18,312-60,473c-123,471-392,802-760,932C2120,12512,1959,12518,1880,12492z"
		/>
	<path class="st0" d="M5740,10584c-232-49-469-211-630-428c-160-218-257-463-300-758c-24-167-25-233-5-358c32-197,112-366,230-485
		c82-83,160-131,258-156c222-59,511,39,740,251c148,136,306,390,377,607c66,199,98,454,80,629c-16,156-78,330-159,448
		c-28,41-113,127-161,164C6056,10586,5896,10618,5740,10584z"/>
	<path class="st0" d="M565,10463c-255-39-448-205-515-443c-50-180-62-371-34-559c49-332,194-631,414-852c151-151,290-238,480-301
		c225-73,424-20,586,155c138,149,191,302,201,582c4,125,2,171-16,274c-55,323-194,594-420,822c-152,153-328,268-464,303
		C737,10460,610,10470,565,10463z"/>
	<path class="st0" d="M3152,9180c-471-60-930-332-1219-725c-245-332-434-677-557-1019c-83-229-156-533-156-652
		c0-270,173-538,410-635c91-37,204-53,310-44c191,15,321,50,665,180c368,139,463,165,683,191c301,36,502-6,942-194
		c389-166,477-192,640-192c305,0,549,160,623,408c26,90,28,314,3,417c-63,260-178,521-354,805c-395,637-700,990-1067,1235
		c-163,109-318,175-496,210C3487,9184,3249,9192,3152,9180z"/>
	<path class="st0" d="M10565,6435c-399-108-703-492-810-1023c-93-461-20-863,208-1151c158-199,414-307,615-260c75,18,222,93,308,157
		c233,175,408,451,490,772c45,176,57,297,51,500c-8,275-37,412-124,582c-86,168-202,292-342,366C10831,6446,10684,6467,10565,6435z"
		/>
	<path class="st0" d="M8234,6415c-227-41-445-256-542-535c-81-232-86-609-13-897c123-480,401-827,776-968c81-31,195-37,285-16
		c281,67,491,325,571,704c26,120,31,384,10,527c-81,562-365,987-765,1146c-65,26-211,58-244,53C8308,6429,8273,6422,8234,6415z"/>
	<path class="st0" d="M12115,4509c-449-60-832-463-969-1019c-38-157-57-345-46-463c21-222,99-412,225-545c151-160,307-214,515-178
		c425,74,799,495,919,1033c28,125,45,319,37,429c-20,288-168,558-371,675C12332,4495,12209,4522,12115,4509z"/>
	<path class="st0" d="M6810,4364c-167-35-326-155-403-302c-101-192-130-507-72-788c42-203,152-448,271-607c247-328,640-529,914-466
		c91,21,171,70,260,159c159,158,220,336,222,640c1,321-101,628-300,900c-74,101-230,253-326,317C7163,4361,6996,4404,6810,4364z"/>
	<path class="st0" d="M9435,3089c-327-44-641-188-920-421c-121-101-212-205-342-391c-304-433-484-819-600-1287
		c-41-162-47-199-47-295c0-88,4-125,23-185c73-235,227-400,434-465c65-21,98-25,201-25c211,0,333,30,745,185
		c375,140,454,162,676,186c296,32,498-12,962-210c387-164,475-188,653-177c186,11,321,67,436,181c127,125,171,258,161,480
		c-15,319-176,683-551,1245c-302,454-575,749-882,953c-166,110-311,173-487,212C9810,3094,9534,3103,9435,3089z"/>
</g>
</svg>
