<?xml version="1.0" encoding="utf-8"?>
<!-- Generator: Adobe Illustrator 24.0.0, SVG Export Plug-In . SVG Version: 6.00 Build 0)  -->
<svg version="1.1" xmlns="http://www.w3.org/2000/svg" xmlns:xlink="http://www.w3.org/1999/xlink" x="0px" y="0px"
	 viewBox="0 0 50 50" style="enable-background:new 0 0 50 50;" xml:space="preserve">
<style type="text/css">
	.st0{fill:#F1CDB3;}
</style>
<g id="Layer_2">
	<path class="st0" d="M20.7,28.9c1.7-1.5,1.2-3.1,2.6-3.8c1-0.5,2.2-0.1,2.4,0c1.4,0.5,2,1.7,2.3,2.3c0.5,0.9,0.2,1.1,0.7,1.7
		c0.7,1.1,1.5,0.9,2.2,1.8c0.6,0.8,1,2,0.7,3.1c-0.3,1.3-1.3,1.9-1.6,2.1c-1.1,0.7-2.3,0.6-2.8,0.6c-1.4-0.1-1.4-0.6-2.7-0.7
		c-1.1-0.1-1.2,0.3-2.8,0.4c-1.3,0.1-2.1,0.1-2.8-0.3c-1.1-0.7-1.5-2-1.5-3.1c0-1.4,0.8-2.3,1.1-2.6C19.4,29.4,19.8,29.7,20.7,28.9z
		"/>
</g>
<g id="Layer_3">
	<circle class="st0" cx="24.6" cy="17.6" r="2.5"/>
	<circle class="st0" cx="32.9" cy="22.2" r="2.5"/>
	<circle class="st0" cx="16.3" cy="22.2" r="3.1"/>
</g>
<g id="Layer_1">
	<path class="st0" d="M44.1,21.2L39.3,8.1V1.2c0-0.7-0.5-1.2-1.2-1.2H11.9c-0.7,0-1.2,0.5-1.2,1.2v6.9L5.9,21.2
		c-0.6,1.6-0.9,3.2-0.9,4.9v19.8c0,2.3,1.8,4.1,4.1,4.1h31.7c2.3,0,4.1-1.8,4.1-4.1V26.1C44.9,24.4,44.7,22.8,44.1,21.2z M13.1,2.4
		h23.8v4.8H13.1V2.4z M42.6,41.8H25.8c-0.7,0-1.2,0.5-1.2,1.2c0,0.7,0.5,1.2,1.2,1.2h16.8v1.7c0,0.9-0.8,1.7-1.7,1.7H9.2
		c-0.9,0-1.7-0.8-1.7-1.7V26.1c0-1.4,0.2-2.7,0.7-4l4.6-12.5h24.5l4.6,12.5c0.5,1.3,0.7,2.7,0.7,4L42.6,41.8z"/>
	<path class="st0" d="M29.7,28.2c-0.4-2.4-2.5-4.3-5.1-4.3c-2.5,0-4.7,1.9-5.1,4.3c-2,0.8-3.3,2.9-3.2,5.1c0.2,2.5,2.2,4.5,4.7,4.7
		c1,0.1,1.9-0.1,2.8-0.6c0.5-0.2,1-0.2,1.5,0c0.7,0.4,1.6,0.6,2.4,0.6c0.1,0,0.3,0,0.4,0c2.5-0.2,4.5-2.2,4.7-4.7
		C33,31.1,31.7,29,29.7,28.2z M30.5,33.1c-0.1,1.3-1.2,2.4-2.5,2.5c-0.5,0-1-0.1-1.5-0.3c-0.6-0.3-1.2-0.5-1.8-0.5s-1.3,0.2-1.8,0.5
		c-0.5,0.2-1,0.3-1.5,0.3c-1.3-0.1-2.4-1.2-2.5-2.5c-0.1-1.4,0.8-2.6,2.2-2.9c0.3-0.1,0.5-0.2,0.7-0.4c0.2-0.2,0.3-0.5,0.3-0.8
		l0-0.1c0-1.5,1.2-2.7,2.7-2.7c1.5,0,2.7,1.2,2.7,2.7l0,0.1c0,0.3,0.1,0.5,0.3,0.8c0.2,0.2,0.4,0.4,0.7,0.4
		C29.6,30.5,30.6,31.8,30.5,33.1z"/>
	<path class="st0" d="M24.6,21.5c2.1,0,3.9-1.7,3.9-3.9s-1.7-3.9-3.9-3.9s-3.9,1.7-3.9,3.9S22.5,21.5,24.6,21.5z M24.6,16.1
		c0.8,0,1.5,0.7,1.5,1.5c0,0.8-0.7,1.5-1.5,1.5s-1.5-0.7-1.5-1.5C23.1,16.8,23.8,16.1,24.6,16.1z"/>
	<path class="st0" d="M20.2,22.2c0-2.1-1.7-3.9-3.9-3.9s-3.9,1.7-3.9,3.9s1.7,3.9,3.9,3.9S20.2,24.3,20.2,22.2z M16.3,23.7
		c-0.8,0-1.5-0.7-1.5-1.5s0.7-1.5,1.5-1.5s1.5,0.7,1.5,1.5S17.1,23.7,16.3,23.7z"/>
	<path class="st0" d="M33,18.3c-2.1,0-3.9,1.7-3.9,3.9s1.7,3.9,3.9,3.9c2.1,0,3.9-1.7,3.9-3.9S35.1,18.3,33,18.3z M33,23.7
		c-0.8,0-1.5-0.7-1.5-1.5s0.7-1.5,1.5-1.5c0.8,0,1.5,0.7,1.5,1.5S33.8,23.7,33,23.7z"/>
	<path class="st0" d="M20.6,41.8h-0.3c-0.7,0-1.2,0.5-1.2,1.2c0,0.7,0.5,1.2,1.2,1.2h0.3c0.7,0,1.2-0.5,1.2-1.2
		C21.8,42.3,21.2,41.8,20.6,41.8z"/>
</g>
</svg>
