<?xml version="1.0" encoding="utf-8"?>
<!-- Generator: Adobe Illustrator 24.0.0, SVG Export Plug-In . SVG Version: 6.00 Build 0)  -->
<svg version="1.1" id="Layer_1" xmlns="http://www.w3.org/2000/svg" xmlns:xlink="http://www.w3.org/1999/xlink" x="0px" y="0px"
	 viewBox="0 0 50 50" style="enable-background:new 0 0 50 50;" xml:space="preserve">
<style type="text/css">
	.st0{fill:#F1CDB3;}
	.st1{fill:#FFFFFF;stroke:#F1CDB3;stroke-width:1.8184;stroke-miterlimit:10;}
</style>
<path class="st0" d="M45.3,29.5c-2.7-0.9-6.3-1.4-10.2-1.4c-0.2,0-0.5,0-0.7,0c-3.6,0.1-6.9,0.6-9.4,1.4c-0.4,0.1-0.8,0.3-1.2,0.5
	V14.4c0-6.5-5.3-11.9-11.9-11.9C5.3,2.5,0,7.8,0,14.4v21.4c0,6.5,5.3,11.9,11.9,11.9c2.1,0,4.1-0.5,5.9-1.6c1.1-0.6,2.1-1.5,3-2.5
	c0.6,0.9,1.9,1.8,4.2,2.6c2.7,0.9,6.3,1.4,10.2,1.4s7.4-0.5,10.2-1.4c3.9-1.3,4.7-3.1,4.7-4.3v-8.1C50,32.6,49.2,30.8,45.3,29.5z
	 M22.1,33.8c0,0,0-0.1,0-0.1l0,0c0-0.2,0.1-0.4,0.3-0.6l0,0c0,0,0.1-0.1,0.1-0.1c0,0,0,0,0.1-0.1l0,0c0.2-0.2,0.4-0.3,0.6-0.5
	c0,0,0,0,0,0c0.5-0.3,1.3-0.7,2.3-1c2.5-0.9,5.9-1.3,9.5-1.3c3.3,0,6.4,0.4,8.8,1.1L23,35C22.4,34.5,22.1,34.1,22.1,33.8L22.1,33.8z
	 M21.8,31.1c-0.8,0.6-1.2,1.2-1.4,1.7c-0.1,0.2-0.1,0.4-0.2,0.6c0,0.1,0,0.2,0,0.3l0,0c0,0,0,0.1,0,0.1v7.4
	c-1.8,2.9-4.9,4.5-8.3,4.5c-5.5,0-9.9-4.4-9.9-9.9V26h2v5.3c0,0.5,0.4,1,1,1s1-0.4,1-1V26h15.9V31.1z M21.8,24.1H5.9v-9.7
	c0-3.3,2.7-6,6-6c3.3,0,6,2.7,6,6c0,0.5,0.4,1,1,1c0.5,0,1-0.4,1-1c0-4.4-3.6-8-8-8c-4.4,0-8,3.6-8,8v9.7H2v-9.7
	c0-5.5,4.4-9.9,9.9-9.9c5.5,0,9.9,4.4,9.9,9.9V24.1z M48,41.9c0,0.6-0.9,1.6-3.4,2.4c-2.5,0.9-5.9,1.3-9.5,1.3s-7-0.5-9.5-1.3
	c-2.5-0.9-3.4-1.8-3.4-2.4v-0.5l0,0v-4.7c0.7,0.5,1.6,0.9,2.8,1.3c2.7,0.9,6.3,1.4,10.2,1.4s7.4-0.5,10.2-1.4
	c1.2-0.4,2.1-0.9,2.8-1.3V41.9z M44.6,36.2c-2.5,0.9-5.9,1.3-9.5,1.3c-3.3,0-6.5-0.4-8.9-1.1l20.9-3.9c0.7,0.5,0.9,0.9,0.9,1.2
	C48,34.4,47.2,35.3,44.6,36.2z"/>
<path class="st0" d="M5.6,34.5c0,0-0.1-0.1-0.1-0.1c-0.1,0-0.1-0.1-0.2-0.1c-0.1,0-0.1,0-0.2-0.1c-0.1,0-0.3,0-0.4,0
	c-0.1,0-0.1,0-0.2,0.1c-0.1,0-0.1,0.1-0.2,0.1c-0.1,0-0.1,0.1-0.1,0.1c0,0-0.1,0.1-0.1,0.1C4,34.7,4,34.8,4,34.8
	c0,0.1,0,0.1-0.1,0.2c0,0.1,0,0.1,0,0.2c0,0.1,0,0.1,0,0.2c0,0.1,0,0.1,0.1,0.2c0,0.1,0.1,0.1,0.1,0.2c0,0.1,0.1,0.1,0.1,0.1
	c0.1,0.1,0.3,0.2,0.5,0.3c0.1,0,0.1,0,0.2,0c0.1,0,0.3,0,0.4-0.1c0.1,0,0.1-0.1,0.2-0.1c0.1,0,0.1-0.1,0.1-0.1c0,0,0.1-0.1,0.1-0.1
	c0-0.1,0.1-0.1,0.1-0.2c0-0.1,0-0.1,0.1-0.2c0-0.1,0-0.1,0-0.2C5.9,34.9,5.8,34.7,5.6,34.5z"/>
<circle class="st1" cx="0.8" cy="25.1" r="11"/>
</svg>
