<?xml version="1.0" encoding="utf-8"?>
<!-- Generator: Adobe Illustrator 24.0.0, SVG Export Plug-In . SVG Version: 6.00 Build 0)  -->
<svg version="1.1" id="Layer_1" xmlns="http://www.w3.org/2000/svg" xmlns:xlink="http://www.w3.org/1999/xlink" x="0px" y="0px"
	 viewBox="0 0 60 40" style="enable-background:new 0 0 60 40;" xml:space="preserve">
<style type="text/css">
	.st0{fill:#F1CDB3;}
</style>
<g id="Layer_1_1_">
	<path class="st0" d="M57.1,11.5c-1.6-1.3-3.8-2.4-6.5-3.3c-5.6-2-12.9-3-20.6-3s-15.1,1-20.6,2.9c-2.8,0.9-5,2.1-6.5,3.3
		c-1.8,1.5-2.7,3.1-2.7,4.8v13c0,1.7,0.9,3.3,2.7,4.7c1.6,1.3,3.8,2.4,6.5,3.3c5,1.7,11.2,2.7,18.1,2.9l0,0h5.4
		c6.7-0.2,13-1.2,17.9-2.9c2.8-1,5-2.1,6.5-3.3c1.8-1.4,2.7-3,2.7-4.7v-13C59.8,14.5,58.9,12.9,57.1,11.5z M30,37.7
		c-1.6,0-2.8-1.3-2.8-2.8c0-1.6,1.3-2.8,2.8-2.8s2.8,1.3,2.8,2.8C32.8,36.5,31.6,37.7,30,37.7z M57.5,29.2c0,3.7-9.3,7.7-23.1,8.4
		c0.5-0.8,0.8-1.8,0.8-2.7c0-0.4,0-0.7-0.1-1.1c4.5-0.3,8.7-1,12.2-2c0.6-0.2,1-0.8,0.8-1.5c-0.2-0.6-0.8-1-1.4-0.8
		c-3.6,1-7.9,1.7-12.7,2c-1-1.1-2.3-1.8-3.9-1.8c-1.6,0-3,0.7-3.9,1.8c-3.2-0.2-6.3-0.5-9-1c-0.6-0.1-1.3,0.3-1.4,0.9
		c-0.1,0.6,0.3,1.3,0.9,1.4c2.6,0.5,5.5,0.8,8.3,1c-0.1,0.4-0.1,0.7-0.1,1.1c0,1,0.3,1.9,0.8,2.7c-13.8-0.7-23.1-4.8-23.1-8.4v-8.6
		l0,0c0.1,0.1,0.2,0.2,0.3,0.3c0.2,0.1,0.3,0.3,0.5,0.4c0.1,0.1,0.2,0.1,0.3,0.2l0,0c0.1,0.1,0.2,0.1,0.3,0.2c0,0,0,0,0.1,0
		c0.1,0.1,0.2,0.1,0.3,0.2l0,0c1.4,0.8,3.1,1.6,5.1,2.3c5.5,1.9,12.8,3,20.5,3s15.1-1,20.6-2.9c2-0.7,3.7-1.5,5.1-2.3l0,0
		c0.1,0,0.2-0.1,0.3-0.2h0.1c0.1,0,0.2-0.1,0.3-0.2l0,0c0.1-0.1,0.2-0.1,0.3-0.2c0.2-0.1,0.3-0.2,0.5-0.4c0.1-0.1,0.2-0.2,0.3-0.3
		l0,0C57.5,20.6,57.5,29.2,57.5,29.2z M7.7,20.9c1-0.5,2.4-1,4.3-1.5c5-1.4,11.4-2.2,18.1-2.2s13.1,0.8,18.1,2.2
		c1.8,0.5,3.3,1.1,4.3,1.5c-4.9,2.2-12.7,3.8-22.3,3.8S12.5,23.1,7.7,20.9z M57.5,16.4c0,0.1,0,0.1,0,0.2l0,0c0,0.1,0,0.1,0,0.2
		c0,0,0,0.1,0,0.2l0,0c0,0.1-0.1,0.1-0.1,0.2v0.1c0,0.1,0,0.1-0.1,0.2l0,0c-0.5,0.9-1.4,1.7-2.3,2.3c-1.2-0.7-3.2-1.6-6.1-2.4
		c-5.2-1.5-11.8-2.3-18.7-2.3s-13.5,0.8-18.7,2.3c-3,0.8-4.9,1.7-6.1,2.4c-0.9-0.6-1.8-1.4-2.3-2.3l0,0c0-0.1-0.1-0.1-0.1-0.2v-0.1
		c0,0,0,0,0-0.1c0,0,0-0.1-0.1-0.1l0,0c0-0.1,0-0.1-0.1-0.2c0-0.1,0-0.1,0-0.2l0,0c0-0.1,0-0.1,0-0.2c0-0.1,0-0.1,0-0.2
		c0-4.1,11.3-8.5,27.5-8.5S58,12.2,58,16.2C57.5,16.2,57.5,16.3,57.5,16.4z"/>
	<path class="st0" d="M48.1,12.8c0-0.2-0.2-0.4-0.3-0.6c-0.1-0.1-0.1-0.1-0.2-0.1c-0.1-0.1-0.3-0.1-0.4-0.2c-0.2,0-0.3,0-0.5,0
		c-0.1,0-0.1,0-0.2,0.1c-0.1,0-0.1,0.1-0.2,0.1c-0.1,0-0.1,0.1-0.2,0.1C46,12.3,46,12.3,46,12.4c-0.1,0.1-0.1,0.3-0.2,0.4
		c0,0.1,0,0.2,0,0.2c0,0.1,0,0.2,0,0.2c0,0.2,0.1,0.3,0.2,0.4c0,0.1,0.1,0.1,0.1,0.2c0.1,0.1,0.1,0.1,0.2,0.1c0.1,0,0.1,0.1,0.2,0.1
		c0.1,0,0.1,0.1,0.2,0.1s0.2,0,0.2,0c0.1,0,0.2,0,0.2,0c0.1,0,0.1,0,0.2-0.1c0.1,0,0.1-0.1,0.2-0.1s0.1-0.1,0.2-0.1
		c0.1-0.1,0.1-0.1,0.1-0.2c0.1-0.1,0.1-0.3,0.2-0.4c0-0.1,0-0.2,0-0.2C48.1,13,48.1,12.9,48.1,12.8z"/>
	<path class="st0" d="M43.4,11.1c-4-0.8-8.5-1.2-13.2-1.2c-6.4,0-12.6,0.8-17.4,2.2c-0.6,0.2-1,0.8-0.8,1.4c0.1,0.5,0.6,0.9,1.1,0.9
		c0.1,0,0.2,0,0.3,0c4.7-1.4,10.6-2.2,16.8-2.2c4.5,0,8.9,0.4,12.8,1.1c0.6,0.1,1.2-0.3,1.4-0.9C44.4,11.8,44,11.2,43.4,11.1z"/>
	<path class="st0" d="M14.2,30.7c0-0.1,0-0.1-0.1-0.2c0-0.1-0.1-0.1-0.1-0.2c0-0.1-0.1-0.1-0.1-0.2C13.8,30,13.8,30,13.7,30
		c-0.1,0-0.1-0.1-0.2-0.1c-0.1,0-0.1-0.1-0.2-0.1c-0.2,0-0.3,0-0.5,0c-0.1,0-0.1,0-0.2,0.1c-0.1,0-0.1,0.1-0.2,0.1
		c-0.1,0-0.1,0.1-0.2,0.1c-0.1,0.1-0.1,0.1-0.1,0.2c0,0.1-0.1,0.1-0.1,0.2s-0.1,0.1-0.1,0.2c0,0.1,0,0.2,0,0.2c0,0.2,0,0.3,0.1,0.4
		c0,0.1,0.1,0.1,0.1,0.2c0,0.1,0.1,0.1,0.1,0.2c0.1,0.1,0.1,0.1,0.2,0.1s0.1,0.1,0.2,0.1s0.1,0.1,0.2,0.1s0.2,0,0.2,0
		c0.1,0,0.2,0,0.2,0c0.1,0,0.1,0,0.2-0.1c0.1,0,0.1-0.1,0.2-0.1c0.1,0,0.1-0.1,0.2-0.1c0.1-0.1,0.2-0.2,0.3-0.4
		c0.1-0.1,0.1-0.3,0.1-0.4C14.2,30.9,14.2,30.8,14.2,30.7z"/>
</g>
</svg>
