<?xml version="1.0" encoding="utf-8"?>
<!-- Generator: Adobe Illustrator 24.0.0, SVG Export Plug-In . SVG Version: 6.00 Build 0)  -->
<svg version="1.1" id="Layer_1" xmlns="http://www.w3.org/2000/svg" xmlns:xlink="http://www.w3.org/1999/xlink" x="0px" y="0px"
	 viewBox="0 0 50 50" style="enable-background:new 0 0 50 50;" xml:space="preserve">
<style type="text/css">
	.st0{fill:#F1CDB3;}
</style>
<path class="st0" d="M18.4,25L16,22.6L14.7,24l2.4,2.4c0.2,0.2,0.4,0.3,0.7,0.3s0.5-0.1,0.7-0.3C18.8,26,18.8,25.3,18.4,25z
	 M26.5,21.1L22,16.6L20.6,18l4.5,4.5c0.1,0.1,0.2,0.2,0.3,0.2c0.1,0,0.2,0.1,0.4,0.1c0.3,0,0.5-0.1,0.7-0.3
	C26.9,22.1,26.9,21.5,26.5,21.1z"/>
<path class="st0" d="M42.9,23.8l-6-6l0.1-0.1l-1.4-1.4l-0.1,0.1l-2-2l0.1-0.1L32.2,13l-0.1,0.1l-6-6c-0.4-0.4-1-0.4-1.4,0l-4,4
	c-0.2,0.2-0.3,0.4-0.3,0.7c0,0.3,0.1,0.5,0.3,0.7l1.3,1.3L5.9,29.9c-1.5,1.5-1.5,3.9,0,5.4l1.2,1.3l-2.3,2.3
	c-0.1,0.1-0.2,0.2-0.2,0.3s-0.1,0.3-0.1,0.4c0,0.1,0,0.3,0.1,0.4s0.1,0.2,0.2,0.3L6.6,42l-6.3,6.3c-0.4,0.4-0.4,1,0,1.4
	C0.5,49.9,0.7,50,1,50s0.5-0.1,0.7-0.3L8,43.4l1.8,1.8c0.2,0.2,0.4,0.3,0.7,0.3c0.3,0,0.5-0.1,0.7-0.3l2.3-2.3l1.3,1.2
	c0.7,0.7,1.7,1.1,2.7,1.1c0.1,0,0.1,0,0.2,0c0.2,0,0.5,0,0.7-0.1c0.7-0.2,1.3-0.5,1.8-1l0,0l16.2-16.2l1.3,1.3
	c0.1,0.1,0.2,0.2,0.3,0.2c0.1,0,0.3,0.1,0.4,0.1c0.3,0,0.5-0.1,0.7-0.3l4-4c0.2-0.2,0.3-0.4,0.3-0.7C43.2,24.3,43.1,24,42.9,23.8z
	 M10.5,43.1l-3.5-3.5l1.6-1.6l3.5,3.5L10.5,43.1z M30.4,31L18.7,42.7c0,0,0,0,0,0c-0.7,0.7-1.9,0.7-2.6,0l-8.8-8.8
	c-0.7-0.7-0.7-1.9,0-2.6l1.4-1.4l2.4,2.4c0.2,0.2,0.4,0.3,0.7,0.3s0.5-0.1,0.7-0.3c0.4-0.4,0.4-1,0-1.4L10,28.5l1.6-1.6l4.5,4.5
	c0.2,0.2,0.4,0.3,0.7,0.3s0.5-0.1,0.7-0.3c0.4-0.4,0.4-1,0-1.4L13,25.5l1.6-1.6l0,0l1.4-1.4l0,0l1.6-1.6l0,0l1.4-1.4l0,0l1.6-1.6
	l0,0l1.4-1.4l0,0l1.5-1.5l8.4,8.4L28.4,27l-1,1L26,29.4l-1.7,1.7l-4.6,4.6c-0.4,0.4-0.4,1,0,1.4c0.2,0.2,0.4,0.3,0.7,0.3
	s0.5-0.1,0.7-0.3l6.4-6.3l1.4-1.4l0.9-0.9l3.6-3.6l1.6,1.6l0,0L30.4,31z M38.2,27.1L22.9,11.8l2.6-2.6l15.3,15.3L38.2,27.1z"/>
<polygon class="st0" points="15.6,39.7 14.2,41.1 14.2,41 5.8,32.7 7.2,31.3 15.5,39.6 "/>
<path class="st0" d="M45.6,17.3l-13-13c-0.4-0.4-1-0.4-1.4,0l-3.5,3.5c-0.2,0.2-0.3,0.4-0.3,0.7s0.1,0.5,0.3,0.7l4.1,4.1L28.1,17
	l1.4,1.4l3.8-3.8l2,2l-3.8,3.8l1.4,1.4l3.8-3.8l4.1,4.1c0.1,0.1,0.2,0.2,0.3,0.2c0.1,0.1,0.2,0.1,0.4,0.1c0.3,0,0.5-0.1,0.7-0.3
	l3.5-3.5C46,18.3,46,17.7,45.6,17.3z M41.5,20L29.9,8.5l2.1-2.1L43.5,18L41.5,20z"/>
<path class="st0" d="M18.6,38.9c0-0.1,0-0.1-0.1-0.2c0-0.1-0.1-0.1-0.1-0.2c0-0.1-0.1-0.1-0.1-0.1c0,0-0.1-0.1-0.1-0.1
	c-0.1,0-0.1-0.1-0.2-0.1c-0.1,0-0.1,0-0.2-0.1c-0.1,0-0.3,0-0.4,0c-0.1,0-0.1,0-0.2,0.1c-0.1,0-0.1,0.1-0.2,0.1
	c-0.1,0-0.1,0.1-0.1,0.1c0,0-0.1,0.1-0.1,0.1c0,0.1-0.1,0.1-0.1,0.2c0,0.1,0,0.1-0.1,0.2c0,0.1,0,0.1,0,0.2s0,0.1,0,0.2
	c0,0.1,0,0.1,0.1,0.2c0,0.1,0.1,0.1,0.1,0.2c0,0.1,0.1,0.1,0.1,0.1c0.1,0.1,0.2,0.2,0.3,0.2c0.1,0,0.2,0.1,0.4,0.1
	c0.1,0,0.3,0,0.4-0.1c0.1,0,0.2-0.1,0.3-0.2c0,0,0.1-0.1,0.1-0.1c0-0.1,0.1-0.1,0.1-0.2c0-0.1,0-0.1,0.1-0.2c0-0.1,0-0.1,0-0.2
	S18.6,39,18.6,38.9z"/>
<path class="st0" d="M20,44.2c-0.5,0.5-1.1,0.8-1.8,1L18,44.8l-5-5.1l0.1-0.1l1.3-1.3l4.4,4.4L20,44.2z"/>
</svg>
