<?xml version="1.0" encoding="utf-8"?>
<!-- Generator: Adobe Illustrator 24.0.0, SVG Export Plug-In . SVG Version: 6.00 Build 0)  -->
<svg version="1.1" id="Layer_1" xmlns="http://www.w3.org/2000/svg" xmlns:xlink="http://www.w3.org/1999/xlink" x="0px" y="0px"
	 viewBox="0 0 60 60" style="enable-background:new 0 0 60 60;" xml:space="preserve">
<style type="text/css">
	.st0{fill:#F1CDB3;}
</style>
<path class="st0" d="M37.1,17.2v-5.4c0-0.7-0.6-1.3-1.3-1.3h-1V1.3c0-0.7-0.6-1.3-1.3-1.3h-8.5c-0.7,0-1.3,0.6-1.3,1.3v9.1h-1
	c-0.7,0-1.3,0.6-1.3,1.3v5.4c-4.6,1.8-7.8,6.3-7.8,11.5v30c0,0.7,0.6,1.3,1.3,1.3h28.7c0.7,0,1.3-0.6,1.3-1.3v-30
	C45,23.5,41.7,19,37.1,17.2z M26.4,2.6h5.9v7.8h-5.9V2.6z M24.1,13h10.4v3.3H24.1V13z M42.3,57.4H16.3V28.7c0-5.4,4.4-9.8,9.8-9.8
	h6.5c5.4,0,9.8,4.4,9.8,9.8V57.4z"/>
<path class="st0" d="M37.8,27.4h-17c-0.7,0-1.3,0.6-1.3,1.3v24.1c0,0.7,0.6,1.3,1.3,1.3h17c0.7,0,1.3-0.6,1.3-1.3v-8.2
	c0-0.7-0.6-1.3-1.3-1.3c-0.7,0-1.3,0.6-1.3,1.3v6.9H22.1V30h14.3v4.1c0,0.7,0.6,1.3,1.3,1.3c0.7,0,1.3-0.6,1.3-1.3v-5.4
	C39.1,28,38.5,27.4,37.8,27.4z"/>
<path class="st0" d="M37.8,38.1c-0.7,0-1.3,0.6-1.3,1.3v0.1c0,0.7,0.6,1.3,1.3,1.3c0.7,0,1.3-0.6,1.3-1.3v-0.1
	C39.1,38.6,38.5,38.1,37.8,38.1z"/>
<path class="st0" d="M28,41.2c-2.2,0-3.9,1.8-3.9,3.9c0,2.2,1.8,3.9,3.9,3.9s3.9-1.8,3.9-3.9C31.9,42.9,30.1,41.2,28,41.2z M28,46.4
	c-0.7,0-1.3-0.6-1.3-1.3c0-0.7,0.6-1.3,1.3-1.3c0.7,0,1.3,0.6,1.3,1.3C29.3,45.8,28.7,46.4,28,46.4z"/>
<path class="st0" d="M34.8,36c0-2.2-1.8-3.9-3.9-3.9S27,33.8,27,36c0,2.2,1.8,3.9,3.9,3.9C33.1,39.9,34.8,38.1,34.8,36z M30.9,37.3
	c-0.7,0-1.3-0.6-1.3-1.3c0-0.7,0.6-1.3,1.3-1.3c0.7,0,1.3,0.6,1.3,1.3C32.2,36.7,31.7,37.3,30.9,37.3z"/>
<path class="st0" d="M50.4,16c0-2.2-1.8-3.9-3.9-3.9c-2.2,0-3.9,1.8-3.9,3.9c0,2.2,1.8,3.9,3.9,3.9C48.6,19.9,50.4,18.1,50.4,16z
	 M46.5,17.3c-0.7,0-1.3-0.6-1.3-1.3c0-0.7,0.6-1.3,1.3-1.3s1.3,0.6,1.3,1.3C47.8,16.7,47.2,17.3,46.5,17.3z"/>
<path class="st0" d="M58.9,42.9c0-2.2-1.8-3.9-3.9-3.9c-2.2,0-3.9,1.8-3.9,3.9c0,2.2,1.8,3.9,3.9,3.9C57.1,46.8,58.9,45.1,58.9,42.9
	z M55,44.2c-0.7,0-1.3-0.6-1.3-1.3c0-0.7,0.6-1.3,1.3-1.3s1.3,0.6,1.3,1.3C56.3,43.6,55.7,44.2,55,44.2z"/>
<path class="st0" d="M15.5,50.3c0-2.2-1.8-3.9-3.9-3.9s-3.9,1.8-3.9,3.9c0,2.2,1.8,3.9,3.9,3.9C13.8,54.2,15.5,52.4,15.5,50.3z
	 M11.6,51.6c-0.7,0-1.3-0.6-1.3-1.3c0-0.7,0.6-1.3,1.3-1.3c0.7,0,1.3,0.6,1.3,1.3C12.9,51,12.3,51.6,11.6,51.6z"/>
<path class="st0" d="M9.5,5.8c0-2.2-1.8-3.9-3.9-3.9S1.7,3.6,1.7,5.8c0,2.2,1.8,3.9,3.9,3.9C7.7,9.7,9.5,8,9.5,5.8z M5.6,7.1
	c-0.7,0-1.3-0.6-1.3-1.3c0-0.7,0.6-1.3,1.3-1.3c0.7,0,1.3,0.6,1.3,1.3C6.9,6.5,6.3,7.1,5.6,7.1z"/>
</svg>
