<?xml version="1.0" encoding="utf-8"?>
<!-- Generator: Adobe Illustrator 24.0.0, SVG Export Plug-In . SVG Version: 6.00 Build 0)  -->
<svg version="1.1" id="Layer_1" xmlns="http://www.w3.org/2000/svg" xmlns:xlink="http://www.w3.org/1999/xlink" x="0px" y="0px"
	 viewBox="0 0 60 60" style="enable-background:new 0 0 60 60;" xml:space="preserve">
<style type="text/css">
	.st0{fill:#F1CDB3;}
</style>
<path class="st0" d="M54.3,35.4c-3.3-1.1-7.6-1.7-12.2-1.7c-0.3,0-0.6,0-0.9,0c-4.3,0.1-8.3,0.7-11.3,1.7c-0.5,0.2-1,0.4-1.5,0.6
	V17.2C28.5,9.4,22.1,3,14.2,3C6.4,3,0,9.4,0,17.2v25.7c0,7.8,6.4,14.2,14.2,14.2c2.5,0,4.9-0.7,7.1-1.9c1.4-0.8,2.6-1.8,3.6-2.9
	c0.7,1.1,2.2,2.2,5,3.1c3.3,1.1,7.6,1.7,12.2,1.7c4.6,0,8.9-0.6,12.2-1.7c4.7-1.6,5.7-3.7,5.7-5.1v-9.8C60,39.1,59,37,54.3,35.4z
	 M26.6,40.5c0,0,0-0.1,0-0.1l0,0c0-0.2,0.2-0.5,0.4-0.7l0,0c0,0,0.1-0.1,0.1-0.1c0,0,0.1-0.1,0.1-0.1l0,0c0.2-0.2,0.4-0.4,0.7-0.5
	c0,0,0,0,0,0c0.6-0.4,1.5-0.8,2.7-1.3c3-1,7.1-1.6,11.4-1.6c4,0,7.7,0.5,10.6,1.3L27.6,42C26.9,41.4,26.6,40.9,26.6,40.5L26.6,40.5z
	 M26.1,37.3c-0.9,0.7-1.4,1.4-1.7,2c-0.1,0.2-0.1,0.4-0.2,0.7c0,0.1,0,0.2,0,0.3l0,0c0,0.1,0,0.1,0,0.2v8.8c-2.2,3.4-5.9,5.5-10,5.5
	c-6.6,0-11.9-5.3-11.9-11.9V31.3h2.3v6.3c0,0.6,0.5,1.2,1.2,1.2c0.6,0,1.2-0.5,1.2-1.2v-6.3h19.1V37.3z M26.1,28.9H7V17.2
	c0-4,3.2-7.2,7.2-7.2s7.2,3.2,7.2,7.2c0,0.6,0.5,1.2,1.2,1.2c0.6,0,1.2-0.5,1.2-1.2c0-5.3-4.3-9.5-9.5-9.5C9,7.7,4.7,12,4.7,17.2
	v11.7H2.3V17.2c0-6.6,5.3-11.9,11.9-11.9c6.6,0,11.9,5.3,11.9,11.9V28.9z M57.7,50.3c0,0.7-1.1,1.9-4.1,2.9c-3,1-7.1,1.6-11.4,1.6
	c-4.3,0-8.4-0.6-11.4-1.6c-3-1-4.1-2.2-4.1-2.9v-0.6l0,0v-5.6c0.8,0.5,1.9,1.1,3.3,1.6c3.3,1.1,7.6,1.7,12.2,1.7
	c4.6,0,8.9-0.6,12.2-1.7c1.4-0.5,2.5-1,3.3-1.6V50.3z M53.6,43.4c-3,1-7.1,1.6-11.4,1.6c-4,0-7.8-0.5-10.7-1.4L56.5,39
	c0.8,0.6,1.1,1.1,1.1,1.5C57.7,41.2,56.6,42.4,53.6,43.4z"/>
<path class="st0" d="M6.7,41.4c-0.1-0.1-0.1-0.1-0.2-0.1c-0.1,0-0.1-0.1-0.2-0.1c-0.1,0-0.1-0.1-0.2-0.1c-0.2,0-0.3,0-0.5,0
	c-0.1,0-0.1,0-0.2,0.1c-0.1,0-0.1,0.1-0.2,0.1c-0.1,0-0.1,0.1-0.2,0.1c-0.1,0.1-0.1,0.1-0.1,0.2c0,0.1-0.1,0.1-0.1,0.2
	c0,0.1-0.1,0.1-0.1,0.2c0,0.1,0,0.2,0,0.2c0,0.1,0,0.2,0,0.2c0,0.1,0,0.1,0.1,0.2c0,0.1,0.1,0.1,0.1,0.2C4.9,42.9,5,43,5,43.1
	c0.2,0.2,0.4,0.3,0.6,0.3c0.1,0,0.2,0,0.2,0c0.2,0,0.3,0,0.4-0.1c0.1,0,0.1-0.1,0.2-0.1c0.1,0,0.1-0.1,0.2-0.1
	c0.1-0.1,0.1-0.1,0.1-0.2c0-0.1,0.1-0.1,0.1-0.2C7,42.6,7,42.5,7,42.5c0-0.1,0-0.2,0-0.2C7,41.9,6.9,41.6,6.7,41.4z"/>
</svg>
