<?xml version="1.0" encoding="utf-8"?>
<!-- Generator: Adobe Illustrator 24.0.0, SVG Export Plug-In . SVG Version: 6.00 Build 0)  -->
<svg version="1.1" id="Layer_1" xmlns="http://www.w3.org/2000/svg" xmlns:xlink="http://www.w3.org/1999/xlink" x="0px" y="0px"
	 viewBox="0 0 50 50" style="enable-background:new 0 0 50 50;" xml:space="preserve">
<style type="text/css">
	.st0{fill:#F1CDB3;}
</style>
<path class="st0" d="M30.9,14.3V9.8c0-0.6-0.5-1.1-1.1-1.1H29V1.1C29,0.5,28.6,0,28,0h-7.1c-0.6,0-1.1,0.5-1.1,1.1v7.6H19
	c-0.6,0-1.1,0.5-1.1,1.1v4.5c-3.8,1.5-6.5,5.3-6.5,9.6v25c0,0.6,0.5,1.1,1.1,1.1h23.9c0.6,0,1.1-0.5,1.1-1.1v-25
	C37.5,19.6,34.8,15.8,30.9,14.3z M22,2.2h4.9v6.5H22V2.2z M20.1,10.9h8.7v2.7h-8.7V10.9z M35.3,47.8H13.6V23.9
	c0-4.5,3.7-8.2,8.2-8.2h5.4c4.5,0,8.2,3.7,8.2,8.2V47.8z"/>
<path class="st0" d="M31.5,22.8H17.4c-0.6,0-1.1,0.5-1.1,1.1V44c0,0.6,0.5,1.1,1.1,1.1h14.1c0.6,0,1.1-0.5,1.1-1.1v-6.8
	c0-0.6-0.5-1.1-1.1-1.1c-0.6,0-1.1,0.5-1.1,1.1v5.7h-12V25h12v3.4c0,0.6,0.5,1.1,1.1,1.1c0.6,0,1.1-0.5,1.1-1.1v-4.5
	C32.6,23.3,32.1,22.8,31.5,22.8z"/>
<path class="st0" d="M31.5,31.7c-0.6,0-1.1,0.5-1.1,1.1v0.1c0,0.6,0.5,1.1,1.1,1.1c0.6,0,1.1-0.5,1.1-1.1v-0.1
	C32.6,32.2,32.1,31.7,31.5,31.7z"/>
<path class="st0" d="M23.3,34.3c-1.8,0-3.3,1.5-3.3,3.3c0,1.8,1.5,3.3,3.3,3.3c1.8,0,3.3-1.5,3.3-3.3C26.6,35.8,25.1,34.3,23.3,34.3
	z M23.3,38.6c-0.6,0-1.1-0.5-1.1-1.1s0.5-1.1,1.1-1.1c0.6,0,1.1,0.5,1.1,1.1S23.9,38.6,23.3,38.6z"/>
<path class="st0" d="M29,30c0-1.8-1.5-3.3-3.3-3.3c-1.8,0-3.3,1.5-3.3,3.3c0,1.8,1.5,3.3,3.3,3.3C27.6,33.2,29,31.8,29,30z
	 M25.8,31.1c-0.6,0-1.1-0.5-1.1-1.1s0.5-1.1,1.1-1.1c0.6,0,1.1,0.5,1.1,1.1S26.4,31.1,25.8,31.1z"/>
<path class="st0" d="M8.7,5c0-1.8-1.5-3.3-3.3-3.3C3.6,1.8,2.1,3.2,2.1,5c0,1.8,1.5,3.3,3.3,3.3C7.2,8.3,8.7,6.8,8.7,5z M5.4,6.1
	C4.8,6.1,4.3,5.6,4.3,5s0.5-1.1,1.1-1.1C6,3.9,6.5,4.4,6.5,5S6,6.1,5.4,6.1z"/>
<path class="st0" d="M12.6,43.9c0-1.8-1.5-3.3-3.3-3.3c-1.8,0-3.3,1.5-3.3,3.3c0,1.8,1.5,3.3,3.3,3.3C11.2,47.2,12.6,45.7,12.6,43.9
	z M9.4,45c-0.6,0-1.1-0.5-1.1-1.1s0.5-1.1,1.1-1.1c0.6,0,1.1,0.5,1.1,1.1S10,45,9.4,45z"/>
<path class="st0" d="M43.5,13.6c0-1.8-1.5-3.3-3.3-3.3c-1.8,0-3.3,1.5-3.3,3.3c0,1.8,1.5,3.3,3.3,3.3C42,16.8,43.5,15.4,43.5,13.6z
	 M40.2,14.7c-0.6,0-1.1-0.5-1.1-1.1s0.5-1.1,1.1-1.1c0.6,0,1.1,0.5,1.1,1.1S40.8,14.7,40.2,14.7z"/>
<path class="st0" d="M48.5,38.6c0-1.8-1.5-3.3-3.3-3.3c-1.8,0-3.3,1.5-3.3,3.3c0,1.8,1.5,3.3,3.3,3.3C47,41.9,48.5,40.4,48.5,38.6z
	 M45.2,39.7c-0.6,0-1.1-0.5-1.1-1.1s0.5-1.1,1.1-1.1c0.6,0,1.1,0.5,1.1,1.1S45.8,39.7,45.2,39.7z"/>
</svg>
