<?xml version="1.0" encoding="utf-8"?>
<!-- Generator: Adobe Illustrator 24.0.0, SVG Export Plug-In . SVG Version: 6.00 Build 0)  -->
<svg version="1.1" xmlns="http://www.w3.org/2000/svg" xmlns:xlink="http://www.w3.org/1999/xlink" x="0px" y="0px"
	 viewBox="0 0 50 50" style="enable-background:new 0 0 50 50;" xml:space="preserve">
<style type="text/css">
	.st0{display:none;}
	.st1{display:inline;fill:#4AFFFC;}
	.st2{fill:#4AFFFC;}
	.st3{fill:#F1CDB3;}
	.st4{fill:#FFFFFF;}
</style>
<g id="Layer_2" class="st0">
	<path class="st1" d="M24.7,36.3c-1.5,0.1-2.6,2.1-2.5,3.7c0,1.1,0.6,2.9,2,3.2c1.4,0.4,2.6-0.8,2.6-0.9c1-1,0.9-2.2,0.9-2.5
		C27.6,38.2,26.3,36.2,24.7,36.3z"/>
</g>
<g id="Layer_3">
	<path class="st2" d="M9.1,19.8c0.1-2.7,5-4.5,6.7-5.1c2.4-0.9,4.4-1.1,5.8-1.2c4.1-0.4,7.2,0.2,9.3,0.6c4.6,0.9,6.7,2.3,7.2,2.6
		c1.5,1,3,2,3,3.3c0.1,2.3-4.2,4.2-6.3,5.1c-4.5,1.9-8.5,2.1-10.4,2.1c-2.7,0-8.6-0.1-13.1-4C10.2,22.3,9,21.2,9.1,19.8z"/>
</g>
<g id="Layer_1">
	<path class="st3" d="M50,33.2l-2.4-16c0-4.6-2.9-9-7.8-11.8C35.8,3,30.5,1.7,25,1.7c-5.5,0-10.8,1.3-14.8,3.7
		c-4.9,2.9-7.7,7.2-7.8,11.8L0,33.2c0,0.1,0,0.1,0,0.2c0,4.7,3.1,9.1,8.6,12C13.1,47.7,18.9,49,25,49c6.1,0,11.9-1.3,16.4-3.7
		c5.5-2.9,8.6-7.3,8.6-12C50,33.3,50,33.3,50,33.2z M11.3,7.3C15,5.1,19.9,3.9,25,3.9s10,1.2,13.7,3.4c4.2,2.5,6.6,6.1,6.6,10
		s-2.4,7.5-6.6,10c-3.7,2.2-8.6,3.4-13.7,3.4c-5.1,0-10-1.2-13.7-3.4c-4.2-2.5-6.6-6.1-6.6-10S7.1,9.8,11.3,7.3z M40.3,43.3
		c-4.2,2.2-9.6,3.4-15.3,3.4s-11.2-1.2-15.3-3.4c-4.7-2.5-7.4-6.1-7.4-9.9l1.6-10.5c1.3,2.4,3.5,4.6,6.3,6.3
		c4.1,2.4,9.3,3.7,14.8,3.7s10.8-1.3,14.8-3.7c2.9-1.7,5-3.9,6.3-6.3l1.6,10.5C47.7,37.3,45,40.9,40.3,43.3z"/>
	<path class="st3" d="M25,28.4c7.8,0,14.7-3,17.1-7.5c0.6-1.1,0.9-2.4,0.9-3.6c0-3.1-2-5.9-5.5-8c-3.4-2-7.8-3.1-12.5-3.1
		s-9.2,1.1-12.5,3.1c-3.6,2.1-5.5,4.9-5.5,8c0,1.2,0.3,2.4,0.9,3.6C10.3,25.4,17.2,28.4,25,28.4z M25,26.1c-6.5,0-12.5-2.3-14.8-5.8
		c2.3-3.4,8.3-5.8,14.8-5.8s12.5,2.3,14.8,5.8C37.5,23.8,31.5,26.1,25,26.1z M9.2,17.3c0-2.2,1.6-4.4,4.4-6.1
		c3-1.8,7.1-2.8,11.4-2.8c4.3,0,8.4,1,11.4,2.8c2.8,1.7,4.4,3.8,4.4,6.1c0,0.2,0,0.4,0,0.6c-3.1-3.4-9.1-5.6-15.7-5.6
		s-12.6,2.2-15.7,5.6C9.2,17.7,9.2,17.5,9.2,17.3z"/>
	<path class="st2" d="M25,34.8c-0.2,0-0.3,0-0.4,0.1s-0.3,0.1-0.4,0.3c-0.7,0.8-3.2,3.5-3.2,5.3c0,2.2,1.8,4,4,4s4-1.8,4-4
		c0-1.9-2.4-4.6-3.2-5.3c-0.1-0.1-0.2-0.2-0.4-0.3S25.2,34.8,25,34.8z M25,42.2c-0.9,0-1.7-0.8-1.7-1.7c0-0.5,0.8-1.7,1.7-2.8
		c0.9,1.1,1.7,2.3,1.7,2.8C26.7,41.4,25.9,42.2,25,42.2z"/>
	<path class="st4" d="M19.9,19.9h-0.4c-0.6,0-1.1,0.5-1.1,1.1c0,0.6,0.5,1.1,1.1,1.1h0.4c0.6,0,1.1-0.5,1.1-1.1
		C21,20.4,20.5,19.9,19.9,19.9z"/>
	<path class="st4" d="M33.4,19.9h-8.1c-0.6,0-1.1,0.5-1.1,1.1c0,0.6,0.5,1.1,1.1,1.1h8.1c0.6,0,1.1-0.5,1.1-1.1
		C34.5,20.4,34,19.9,33.4,19.9z"/>
</g>
</svg>
