<?xml version="1.0" encoding="utf-8"?>
<!-- Generator: Adobe Illustrator 24.0.0, SVG Export Plug-In . SVG Version: 6.00 Build 0)  -->
<svg version="1.1" id="Layer_1" xmlns="http://www.w3.org/2000/svg" xmlns:xlink="http://www.w3.org/1999/xlink" x="0px" y="0px"
	 viewBox="0 0 60 60" style="enable-background:new 0 0 60 60;" xml:space="preserve">
<style type="text/css">
	.st0{fill:#F1CDB3;}
</style>
<g id="Layer_2">
	<path class="st0" d="M29.3,30.3c0,0-3.1,2.2-5.1,4.6c-2,2.3-3.7,2.8-2.9,5.5s1,3.4,3.6,3.9c2.6,0.4,2.3-1.8,4.6-1.3
		s2.1,2.1,4.4,1.3c2.2-0.8,2.9-0.7,3.5-2.7s1.2-2.3,0.3-4c-0.9-1.7-0.2-2.3-2.2-2.6c-2-0.3-2.1-1.3-2.8-2.5c-0.6-1.2-0.5-2.6-2-2.5
		C29.3,30,29.3,30.3,29.3,30.3z"/>
</g>
<g id="Layer_3">
	<path class="st0" d="M18.5,23.9c0.3-0.1,0.9-1.7,2.6-0.2c1.7,1.5,1.9,2.2,1.4,3.5s-0.1,2.8-2.3,3.1c-2.1,0.3-3.1-0.3-3.4-1.9
		s1.5-4.4,1.5-4.4"/>
</g>
<g id="Layer_4">
	<path class="st0" d="M26.6,21.1c0,0.4-0.7,1.8,0.8,2.6c1.5,0.9,2,0.9,3.1,0.4s1.8-0.8,2.3-2.1s1-1.6,0-2.9c-1-1.3-1.2-1.9-3.2-1.6
		s-2.3,1.3-2.6,1.8S26.6,21.1,26.6,21.1z"/>
</g>
<g id="Layer_5">
	<path class="st0" d="M36.6,26c0,0-0.6,0.4,0.3,2.2c0.9,1.8,0.9,1.7,2.5,1.4c1.6-0.3,2.2,0,3.1-1.5c0.9-1.5,1.2-2,0.3-3.2
		c-0.9-1.2-1-2.3-3-1.9c-2,0.5-3.3,2.8-3.3,2.8"/>
</g>
<path class="st0" d="M52.9,25.5L47.1,9.7V1.4c0-0.8-0.6-1.4-1.4-1.4H14.3c-0.8,0-1.4,0.6-1.4,1.4v8.3L7.1,25.5c-0.7,1.9-1,3.8-1,5.8
	v23.8c0,2.7,2.2,4.9,4.9,4.9h38c2.7,0,4.9-2.2,4.9-4.9V31.3C53.9,29.3,53.6,27.4,52.9,25.5z M15.7,2.9h28.6v5.7H15.7V2.9z
	 M51.1,50.1H30.9c-0.8,0-1.4,0.6-1.4,1.4c0,0.8,0.6,1.4,1.4,1.4h20.2v2.1c0,1.1-0.9,2.1-2.1,2.1H11c-1.1,0-2.1-0.9-2.1-2.1V31.3
	c0-1.7,0.3-3.3,0.9-4.8l5.5-15h29.4l5.5,15c0.6,1.6,0.9,3.2,0.9,4.8L51.1,50.1z"/>
<path class="st0" d="M35.6,33.8c-0.5-2.9-3-5.2-6.1-5.2s-5.6,2.2-6.1,5.2c-2.4,1-4,3.5-3.8,6.2c0.2,3,2.7,5.4,5.7,5.6
	c1.2,0.1,2.3-0.2,3.3-0.7c0.6-0.3,1.2-0.3,1.8,0c0.9,0.5,1.9,0.7,2.9,0.7c0.2,0,0.3,0,0.5,0c3-0.2,5.4-2.7,5.7-5.6
	C39.6,37.3,38,34.8,35.6,33.8z M36.6,39.7c-0.1,1.6-1.4,2.9-3,3c-0.6,0-1.2-0.1-1.8-0.4c-0.7-0.4-1.4-0.5-2.2-0.5
	c-0.8,0-1.5,0.2-2.2,0.5c-0.5,0.3-1.2,0.4-1.8,0.4c-1.6-0.1-2.9-1.4-3-3c-0.1-1.6,1-3.1,2.6-3.5c0.3-0.1,0.6-0.2,0.8-0.5
	s0.3-0.6,0.3-0.9l0-0.1c0-1.8,1.5-3.3,3.3-3.3c1.8,0,3.3,1.5,3.3,3.3l0,0.1c0,0.3,0.1,0.7,0.3,0.9c0.2,0.3,0.5,0.4,0.8,0.5
	C35.6,36.6,36.7,38.1,36.6,39.7z"/>
<path class="st0" d="M29.6,25.8c2.6,0,4.6-2.1,4.6-4.6s-2.1-4.6-4.6-4.6s-4.6,2.1-4.6,4.6S27,25.8,29.6,25.8z M29.6,19.3
	c1,0,1.8,0.8,1.8,1.8c0,1-0.8,1.8-1.8,1.8s-1.8-0.8-1.8-1.8C27.8,20.1,28.6,19.3,29.6,19.3z"/>
<path class="st0" d="M24.2,26.7c0-2.6-2.1-4.6-4.6-4.6s-4.6,2.1-4.6,4.6s2.1,4.6,4.6,4.6S24.2,29.2,24.2,26.7z M19.6,28.4
	c-1,0-1.8-0.8-1.8-1.8c0-1,0.8-1.8,1.8-1.8s1.8,0.8,1.8,1.8C21.3,27.6,20.5,28.4,19.6,28.4z"/>
<path class="st0" d="M39.6,22c-2.6,0-4.6,2.1-4.6,4.6c0,2.6,2.1,4.6,4.6,4.6c2.6,0,4.6-2.1,4.6-4.6S42.1,22,39.6,22z M39.6,28.4
	c-1,0-1.8-0.8-1.8-1.8c0-1,0.8-1.8,1.8-1.8c1,0,1.8,0.8,1.8,1.8C41.3,27.6,40.5,28.4,39.6,28.4z"/>
<path class="st0" d="M24.7,50.1h-0.3c-0.8,0-1.4,0.6-1.4,1.4c0,0.8,0.6,1.4,1.4,1.4h0.3c0.8,0,1.4-0.6,1.4-1.4
	C26.1,50.8,25.5,50.1,24.7,50.1z"/>
</svg>
