<?xml version="1.0" encoding="utf-8"?>
<!-- Generator: Adobe Illustrator 24.0.0, SVG Export Plug-In . SVG Version: 6.00 Build 0)  -->
<svg version="1.1" id="Layer_1" xmlns="http://www.w3.org/2000/svg" xmlns:xlink="http://www.w3.org/1999/xlink" x="0px" y="0px"
	 viewBox="0 0 50 50" style="enable-background:new 0 0 50 50;" xml:space="preserve">
<style type="text/css">
	.st0{fill:#FF9FAA;}
	.st1{fill:#F1CDB3;}
	.st2{fill:#FFE91F;}
	.st3{fill:#545454;}
</style>
<circle class="st0" cx="25.2" cy="38.6" r="2"/>
<path class="st1" d="M48.1,16.6L25.6,0.2C25.4,0.1,25.2,0,25,0c-0.2,0-0.4,0.1-0.6,0.2L1.9,16.6C1.5,17,1.4,17.6,1.7,18l2.9,4
	c0.1,0.1,0.2,0.2,0.3,0.3c0.1,0.1,0.2,0.1,0.4,0.1s0.3,0,0.4,0c0.1,0,0.2-0.1,0.3-0.2l0.9-0.6V49c0,0.5,0.4,1,1,1h34.2
	c0.5,0,1-0.4,1-1V21.6l0.8,0.6c0.1,0.1,0.2,0.1,0.3,0.2c0.1,0,0.3,0,0.4,0c0.1,0,0.2-0.1,0.4-0.1c0.1-0.1,0.2-0.2,0.3-0.3l2.9-4
	C48.6,17.6,48.5,17,48.1,16.6z M41.2,44.2H18.1c-0.5,0-1,0.4-1,1c0,0.5,0.4,1,1,1h23.1V48H8.9V20.9h22.9c0.5,0,1-0.4,1-1
	c0-0.5-0.4-1-1-1H10.5L25,8.4l16.2,11.8V44.2z M44.3,20.1L25.6,6.4c-0.2-0.1-0.4-0.2-0.6-0.2c-0.2,0-0.4,0.1-0.6,0.2L5.7,20.1
	l-1.8-2.4L25,2.2l21.1,15.5L44.3,20.1z"/>
<path class="st1" d="M36.4,19.8c0-0.1,0-0.1-0.1-0.2c0-0.1-0.1-0.1-0.1-0.2c0-0.1-0.1-0.1-0.1-0.1C36,19.1,35.7,19,35.5,19
	c-0.3,0-0.5,0.1-0.7,0.3c0,0-0.1,0.1-0.1,0.1c0,0.1-0.1,0.1-0.1,0.2c0,0.1,0,0.1-0.1,0.2c0,0.1,0,0.1,0,0.2c0,0.1,0,0.1,0,0.2
	c0,0.1,0,0.1,0.1,0.2c0,0.1,0.1,0.1,0.1,0.2c0,0.1,0.1,0.1,0.1,0.1c0,0,0.1,0.1,0.1,0.1c0.1,0,0.1,0.1,0.2,0.1c0.1,0,0.1,0,0.2,0.1
	c0.1,0,0.1,0,0.2,0c0.1,0,0.1,0,0.2,0c0.1,0,0.1,0,0.2-0.1c0.1,0,0.1-0.1,0.2-0.1c0.1,0,0.1-0.1,0.1-0.1c0,0,0.1-0.1,0.1-0.1
	c0-0.1,0.1-0.1,0.1-0.2c0-0.1,0-0.1,0.1-0.2c0-0.1,0-0.1,0-0.2C36.4,19.9,36.4,19.8,36.4,19.8z"/>
<path class="st1" d="M15.7,45c0-0.1,0-0.1-0.1-0.2c0-0.1-0.1-0.1-0.1-0.2c0-0.1-0.1-0.1-0.1-0.1c0,0-0.1-0.1-0.1-0.1
	c-0.1-0.1-0.2-0.1-0.4-0.1c-0.1,0-0.3,0-0.4,0c-0.1,0-0.1,0-0.2,0.1c-0.1,0-0.1,0.1-0.2,0.1c-0.1,0-0.1,0.1-0.1,0.1
	c0,0-0.1,0.1-0.1,0.1c-0.1,0.1-0.1,0.2-0.1,0.4c0,0.1,0,0.1,0,0.2c0,0.1,0,0.3,0.1,0.4c0,0.1,0.1,0.1,0.1,0.2c0,0.1,0.1,0.1,0.1,0.1
	c0,0,0.1,0.1,0.1,0.1c0.1,0,0.1,0.1,0.2,0.1c0.1,0,0.1,0,0.2,0.1c0.1,0,0.1,0,0.2,0c0.2,0,0.4-0.1,0.5-0.2c0.1,0,0.1-0.1,0.1-0.1
	c0,0,0.1-0.1,0.1-0.1c0.1-0.2,0.2-0.3,0.2-0.5C15.7,45.2,15.7,45.1,15.7,45z"/>
<path class="st1" d="M37.4,25.5c0-0.8-0.3-1.6-0.9-2.2c-0.6-0.6-1.4-0.9-2.2-0.9c-0.3,0-0.5,0-0.8,0.1c-1.8,0.5-3.6,1.1-5.3,1.8
	c-1-0.2-2-0.3-3-0.3c-0.6,0-1.1,0-1.7,0.1c-0.4,0.1-0.9,0.1-1.3,0.2c-1.7-0.8-3.5-1.4-5.3-1.8c0,0,0,0,0,0c-1-0.2-2,0-2.7,0.6
	c-0.8,0.6-1.2,1.6-1.1,2.5c0.1,1,0.2,2,0.3,3c0.1,0.9,0.3,1.8,0.5,2.7c-0.3,0.8-0.5,1.6-0.6,2.4c0,0.3-0.1,0.7-0.1,1
	c0,4.4,3.8,7.9,8.5,7.9h7.1c2.6,0,5-1.1,6.6-2.9c1.5-1.7,2.1-3.9,1.8-6c-0.1-0.5-0.2-0.9-0.3-1.4c-0.1-0.3-0.2-0.7-0.3-1
	c0.4-1.9,0.7-3.8,0.8-5.7C37.4,25.6,37.4,25.5,37.4,25.5z M35.4,25.5L35.4,25.5c-0.1,1.9-0.4,3.8-0.8,5.7c0,0.2,0,0.4,0.1,0.6
	c0.1,0.4,0.3,0.7,0.4,1.1c0.1,0.4,0.2,0.8,0.2,1.1c0.2,1.6-0.3,3.2-1.4,4.5c-1.3,1.4-3.1,2.3-5.1,2.3h-7.1c-3.6,0-6.5-2.7-6.5-6
	c0-0.3,0-0.5,0.1-0.8c0.1-0.8,0.3-1.5,0.6-2.2c0.1-0.2,0.1-0.4,0.1-0.6c-0.2-0.9-0.4-1.9-0.5-2.8c-0.1-0.9-0.2-1.9-0.3-2.9
	c0-0.4,0.1-0.7,0.4-0.9c0.2-0.2,0.5-0.3,0.7-0.3c0.1,0,0.2,0,0.3,0l0,0c1.8,0.5,3.6,1.1,5.3,1.9c0.2,0.1,0.4,0.1,0.7,0.1
	c0.5-0.1,0.9-0.2,1.4-0.3c0.5-0.1,1-0.1,1.4-0.1c1,0,1.9,0.1,2.8,0.4c0.2,0.1,0.5,0,0.7-0.1c1.7-0.8,3.5-1.4,5.3-1.9
	c0.1,0,0.2,0,0.3,0h0c0.3,0,0.6,0.1,0.8,0.3c0.1,0.1,0.2,0.2,0.2,0.4C35.4,25.2,35.4,25.3,35.4,25.5C35.4,25.5,35.4,25.5,35.4,25.5z
	"/>
<path class="st1" d="M27,36.3c-0.5,0-0.9-0.4-0.9-0.9c0-0.5-0.4-1-1-1s-1,0.4-1,1v0c0,0.5-0.4,0.9-0.9,0.9c-0.5,0-1,0.4-1,1
	c0,0.5,0.4,1,1,1c0.7,0,1.4-0.3,1.9-0.7c0.5,0.4,1.1,0.7,1.8,0.7c0.5,0,1-0.4,1-1C28,36.7,27.6,36.3,27,36.3z"/>
<path class="st2" d="M21.8,31.8l-1.5-0.7c-0.1-0.1-0.3-0.1-0.4-0.1c-0.1,0-0.3,0-0.4,0.1l-1.5,0.7c-0.5,0.2-0.7,0.8-0.5,1.3
	c0.1,0.1,0.1,0.2,0.2,0.3c0.1,0.1,0.2,0.2,0.3,0.2s0.2,0.1,0.4,0.1c0.1,0,0.3,0,0.4-0.1l1-0.5l1,0.5c0.5,0.2,1.1,0,1.3-0.5
	C22.5,32.6,22.3,32,21.8,31.8z"/>
<path class="st2" d="M32.3,31.8l-1.5-0.7c-0.1-0.1-0.3-0.1-0.4-0.1c-0.1,0-0.3,0-0.4,0.1l-1.5,0.7c-0.5,0.2-0.7,0.8-0.5,1.3
	c0.2,0.5,0.8,0.7,1.3,0.5l1-0.5l1,0.5c0.1,0.1,0.3,0.1,0.4,0.1c0.4,0,0.7-0.2,0.9-0.6C33,32.6,32.8,32,32.3,31.8z"/>
<ellipse class="st3" cx="30.4" cy="32.1" rx="0.7" ry="1.1"/>
<ellipse class="st3" cx="19.9" cy="32.1" rx="0.7" ry="1.1"/>
</svg>
