<?xml version="1.0" encoding="utf-8"?>
<!-- Generator: Adobe Illustrator 24.0.0, SVG Export Plug-In . SVG Version: 6.00 Build 0)  -->
<svg version="1.1" xmlns="http://www.w3.org/2000/svg" xmlns:xlink="http://www.w3.org/1999/xlink" x="0px" y="0px"
	 viewBox="0 0 60 60" style="enable-background:new 0 0 60 60;" xml:space="preserve">
<style type="text/css">
	.st0{fill:#F1CDB3;}
	.st1{fill:none;}
</style>
<g id="Layer_1">
	<path class="st0" d="M57.3,10.3c-1.6-1.3-3.8-2.4-6.5-3.3C45.2,5,37.8,4,30,4S14.8,5,9.2,6.9c-2.8,0.9-5,2.1-6.5,3.3
		C0.9,11.7,0,13.3,0,15v13.1c0,1.7,0.9,3.3,2.7,4.7c1.6,1.3,3.8,2.4,6.5,3.3c5,1.7,11.3,2.7,18.2,2.9h0l5.4,0
		c6.8-0.2,13.1-1.2,18-2.9c2.8-1,5-2.1,6.5-3.3c1.8-1.4,2.7-3,2.7-4.7V15C60,13.3,59.1,11.7,57.3,10.3z M30,36.7
		c-1.6,0-2.8-1.3-2.8-2.8c0-1.6,1.3-2.8,2.8-2.8s2.8,1.3,2.8,2.8C32.8,35.5,31.6,36.7,30,36.7z M57.7,28.1c0,3.7-9.4,7.8-23.3,8.5
		c0.5-0.8,0.8-1.8,0.8-2.7c0-0.4,0-0.7-0.1-1.1c4.5-0.3,8.8-1,12.3-2c0.6-0.2,1-0.8,0.8-1.5c-0.2-0.6-0.8-1-1.4-0.8
		c-3.6,1-8,1.7-12.8,2c-1-1.1-2.3-1.8-3.9-1.8c-1.6,0-3,0.7-3.9,1.8c-3.2-0.2-6.3-0.5-9.1-1c-0.6-0.1-1.3,0.3-1.4,0.9
		c-0.1,0.6,0.3,1.3,0.9,1.4c2.6,0.5,5.5,0.8,8.4,1c-0.1,0.4-0.1,0.7-0.1,1.1c0,1,0.3,1.9,0.8,2.7c-13.9-0.7-23.3-4.8-23.3-8.5v-8.7
		l0,0c0.1,0.1,0.2,0.2,0.3,0.3C2.9,19.8,3,20,3.2,20.1c0.1,0.1,0.2,0.1,0.3,0.2l0,0c0.1,0.1,0.2,0.1,0.3,0.2c0,0,0,0,0.1,0
		c0.1,0.1,0.2,0.1,0.3,0.2l0,0c1.4,0.8,3.1,1.6,5.1,2.3C14.8,24.9,22.2,26,30,26s15.2-1,20.8-2.9c2-0.7,3.7-1.5,5.1-2.3l0,0
		c0.1,0,0.2-0.1,0.3-0.2l0.1,0c0.1,0,0.2-0.1,0.3-0.2l0,0c0.1-0.1,0.2-0.1,0.3-0.2c0.2-0.1,0.3-0.2,0.5-0.4c0.1-0.1,0.2-0.2,0.3-0.3
		l0,0V28.1z M7.5,19.8c1-0.5,2.4-1,4.3-1.5c5-1.4,11.5-2.2,18.2-2.2s13.2,0.8,18.2,2.2c1.8,0.5,3.3,1.1,4.3,1.5
		C47.6,22,39.7,23.6,30,23.6S12.4,22,7.5,19.8z M57.7,15.2c0,0.1,0,0.1,0,0.2v0c0,0.1,0,0.1,0,0.2c0,0,0,0.1,0,0.2l0,0
		c0,0.1-0.1,0.1-0.1,0.2c0,0,0,0.1,0,0.1c0,0.1,0,0.1-0.1,0.2l0,0c-0.5,0.9-1.4,1.7-2.3,2.3c-1.2-0.7-3.2-1.6-6.1-2.4
		c-5.2-1.5-11.9-2.3-18.8-2.3s-13.6,0.8-18.8,2.3c-3,0.8-4.9,1.7-6.1,2.4c-0.9-0.6-1.8-1.4-2.3-2.3l0,0c0-0.1-0.1-0.1-0.1-0.2
		c0,0,0-0.1,0-0.1c0,0,0,0,0-0.1c0,0,0-0.1-0.1-0.1c0,0,0,0,0,0c0-0.1,0-0.1-0.1-0.2c0-0.1,0-0.1,0-0.2v0c0-0.1,0-0.1,0-0.2
		c0-0.1,0-0.1,0-0.2c0-4.1,11.4-8.6,27.7-8.6s27.7,4.6,27.7,8.6C57.7,15,57.7,15.1,57.7,15.2z"/>
	<path class="st0" d="M48.2,11.6c0-0.2-0.2-0.4-0.3-0.6c-0.1-0.1-0.1-0.1-0.2-0.1c-0.1-0.1-0.3-0.1-0.4-0.2c-0.2,0-0.3,0-0.5,0
		c-0.1,0-0.1,0-0.2,0.1c-0.1,0-0.1,0.1-0.2,0.1c-0.1,0-0.1,0.1-0.2,0.1c-0.1,0.1-0.1,0.1-0.1,0.2c-0.1,0.1-0.1,0.3-0.2,0.4
		c0,0.1,0,0.2,0,0.2c0,0.1,0,0.2,0,0.2c0,0.2,0.1,0.3,0.2,0.4c0,0.1,0.1,0.1,0.1,0.2c0.1,0.1,0.1,0.1,0.2,0.1c0.1,0,0.1,0.1,0.2,0.1
		c0.1,0,0.1,0.1,0.2,0.1c0.1,0,0.2,0,0.2,0c0.1,0,0.2,0,0.2,0c0.1,0,0.1,0,0.2-0.1c0.1,0,0.1-0.1,0.2-0.1c0.1,0,0.1-0.1,0.2-0.1
		c0.1-0.1,0.1-0.1,0.1-0.2c0.1-0.1,0.1-0.3,0.2-0.4c0-0.1,0-0.2,0-0.2C48.2,11.8,48.2,11.7,48.2,11.6z"/>
	<path class="st0" d="M43.5,9.9c-4-0.8-8.6-1.2-13.3-1.2c-6.4,0-12.7,0.8-17.5,2.2c-0.6,0.2-1,0.8-0.8,1.4c0.1,0.5,0.6,0.9,1.1,0.9
		c0.1,0,0.2,0,0.3,0C18,11.8,24,11,30.2,11c4.5,0,9,0.4,12.9,1.1c0.6,0.1,1.2-0.3,1.4-0.9C44.5,10.6,44.1,10,43.5,9.9z"/>
	<path class="st0" d="M14.1,29.6c0-0.1,0-0.1-0.1-0.2c0-0.1-0.1-0.1-0.1-0.2c0-0.1-0.1-0.1-0.1-0.2c-0.1-0.1-0.1-0.1-0.2-0.1
		c-0.1,0-0.1-0.1-0.2-0.1c-0.1,0-0.1-0.1-0.2-0.1c-0.2,0-0.3,0-0.5,0c-0.1,0-0.1,0-0.2,0.1c-0.1,0-0.1,0.1-0.2,0.1
		c-0.1,0-0.1,0.1-0.2,0.1c-0.1,0.1-0.1,0.1-0.1,0.2c0,0.1-0.1,0.1-0.1,0.2c0,0.1-0.1,0.1-0.1,0.2c0,0.1,0,0.2,0,0.2
		c0,0.2,0,0.3,0.1,0.4c0,0.1,0.1,0.1,0.1,0.2c0,0.1,0.1,0.1,0.1,0.2c0.1,0.1,0.1,0.1,0.2,0.1c0.1,0,0.1,0.1,0.2,0.1
		c0.1,0,0.1,0.1,0.2,0.1c0.1,0,0.2,0,0.2,0c0.1,0,0.2,0,0.2,0c0.1,0,0.1,0,0.2-0.1c0.1,0,0.1-0.1,0.2-0.1c0.1,0,0.1-0.1,0.2-0.1
		c0.1-0.1,0.2-0.2,0.3-0.4c0.1-0.1,0.1-0.3,0.1-0.4C14.1,29.8,14.1,29.7,14.1,29.6z"/>
</g>
<g id="Layer_2">
	<line class="st1" x1="33.1" y1="39" x2="32.8" y2="39"/>
	<line class="st1" x1="27.4" y1="39" x2="27.2" y2="39"/>
</g>
</svg>
