<?xml version="1.0" encoding="utf-8"?>
<!-- Generator: Adobe Illustrator 24.0.0, SVG Export Plug-In . SVG Version: 6.00 Build 0)  -->
<svg version="1.1" id="Layer_1" xmlns="http://www.w3.org/2000/svg" xmlns:xlink="http://www.w3.org/1999/xlink" x="0px" y="0px"
	 viewBox="0 0 60 60" style="enable-background:new 0 0 60 60;" xml:space="preserve">
<style type="text/css">
	.st0{fill:#3FECFF;}
	.st1{fill:#F1CDB3;}
	.st2{fill:#FFFFFF;}
</style>
<g id="Layer_2">
	<path class="st0" d="M11.1,23.6c0.2-0.2,1.3-2.4,5.6-4.5s3.9-2.2,9.7-2.7c5.8-0.5,10.3-0.7,14.4,1.1s6.1,3.6,7.6,5.8
		c1.5,2.2,3.5,2.1-2.4,5.1s-7.6,4.5-13.3,4.8c-5.8,0.3-11.5-1-14.4-2.4c-2.9-1.4-6.1-4.7-7.4-5.8S11.1,23.6,11.1,23.6z"/>
</g>
<path class="st1" d="M60,39.9l-2.9-19.2c0-5.6-3.4-10.8-9.3-14.2C42.9,3.6,36.6,2,30,2c-6.6,0-12.9,1.6-17.8,4.4
	c-5.9,3.5-9.3,8.6-9.3,14.2L0,39.9c0,0.1,0,0.1,0,0.2c0,5.6,3.8,10.9,10.3,14.4c5.4,2.8,12.4,4.4,19.7,4.4c7.3,0,14.3-1.6,19.7-4.4
	C56.2,50.9,60,45.7,60,40.1C60,40,60,39.9,60,39.9z M13.6,8.8C18,6.2,23.9,4.7,30,4.7c6.1,0,12,1.4,16.4,4.1c5.1,3,8,7.3,8,12
	c0,4.6-2.9,9-8,12C42,35.3,36.1,36.8,30,36.8c-6.1,0-12-1.4-16.4-4.1c-5.1-3-8-7.3-8-12C5.6,16.1,8.5,11.8,13.6,8.8z M48.4,52
	c-5,2.6-11.5,4.1-18.4,4.1c-6.9,0-13.4-1.5-18.4-4.1C6,49,2.8,44.7,2.7,40.2l1.9-12.6c1.6,2.9,4.1,5.5,7.6,7.5
	c4.9,2.9,11.2,4.4,17.8,4.4c6.6,0,12.9-1.6,17.8-4.4c3.4-2,6-4.6,7.6-7.5l1.9,12.6C57.2,44.7,54,49,48.4,52z"/>
<path class="st1" d="M30,34.1c9.4,0,17.6-3.6,20.5-9c0.8-1.4,1.1-2.8,1.1-4.3c0-3.7-2.4-7.1-6.6-9.6C41,8.8,35.7,7.5,30,7.5
	c-5.7,0-11,1.3-15,3.7c-4.3,2.5-6.6,5.9-6.6,9.6c0,1.5,0.4,2.9,1.1,4.3C12.4,30.4,20.6,34.1,30,34.1z M30,31.3
	c-7.8,0-15-2.8-17.7-6.9c2.8-4.1,9.9-6.9,17.7-6.9c7.8,0,15,2.8,17.7,6.9C45,28.5,37.8,31.3,30,31.3z M11.1,20.8
	c0-2.7,1.9-5.3,5.3-7.3c3.6-2.1,8.5-3.3,13.7-3.3c5.2,0,10,1.2,13.7,3.3c3.4,2,5.3,4.6,5.3,7.3c0,0.2,0,0.5,0,0.7
	C45.1,17.4,38,14.7,30,14.7s-15.1,2.6-18.9,6.7C11.1,21.2,11.1,21,11.1,20.8z"/>
<path class="st0" d="M30,41.8c-0.2,0-0.4,0-0.5,0.1c-0.2,0.1-0.3,0.2-0.5,0.3c-0.9,0.9-3.8,4.1-3.8,6.4c0,2.6,2.1,4.8,4.8,4.8
	s4.8-2.1,4.8-4.8c0-2.3-2.9-5.5-3.8-6.4c-0.1-0.1-0.3-0.2-0.5-0.3C30.4,41.8,30.2,41.8,30,41.8z M30,50.6c-1.1,0-2-0.9-2-2
	c0-0.6,1-2.1,2-3.4c1.1,1.3,2,2.8,2,3.4C32,49.7,31.1,50.6,30,50.6z"/>
<path class="st2" d="M23.9,23.9h-0.4c-0.8,0-1.4,0.6-1.4,1.4s0.6,1.4,1.4,1.4h0.4c0.8,0,1.4-0.6,1.4-1.4S24.6,23.9,23.9,23.9z"/>
<path class="st2" d="M40.1,23.9h-9.7c-0.8,0-1.4,0.6-1.4,1.4s0.6,1.4,1.4,1.4h9.7c0.8,0,1.4-0.6,1.4-1.4S40.8,23.9,40.1,23.9z"/>
</svg>
