<?xml version="1.0" encoding="utf-8"?>
<!-- Generator: Adobe Illustrator 24.0.0, SVG Export Plug-In . SVG Version: 6.00 Build 0)  -->
<svg version="1.1" id="Layer_1" xmlns="http://www.w3.org/2000/svg" xmlns:xlink="http://www.w3.org/1999/xlink" x="0px" y="0px"
	 viewBox="0 0 50 35" style="enable-background:new 0 0 50 35;" xml:space="preserve">
<style type="text/css">
	.st0{fill:#F1CDB3;}
</style>
<g id="Layer_1_1_">
	<path class="st0" d="M47.5,11.4c-1.3-1.1-3.1-2-5.4-2.7C37.6,7,31.5,6.2,25,6.2S12.5,7,7.9,8.5c-2.3,0.7-4.1,1.7-5.4,2.7
		c-1.5,1.2-2.2,2.6-2.2,4V26c0,1.4,0.7,2.7,2.2,3.9c1.3,1.1,3.1,2,5.4,2.7c4.1,1.4,9.3,2.2,15,2.4l0,0h4.4c5.6-0.2,10.8-1,14.8-2.4
		c2.3-0.8,4.1-1.7,5.4-2.7c1.5-1.2,2.2-2.5,2.2-3.9V15.2C49.8,13.8,49,12.5,47.5,11.4z M25,33.1c-1.3,0-2.3-1.1-2.3-2.3
		c0-1.3,1.1-2.3,2.3-2.3s2.3,1.1,2.3,2.3C27.3,32.1,26.4,33.1,25,33.1z M47.9,26c0,3-7.7,6.4-19.2,7c0.4-0.7,0.7-1.5,0.7-2.2
		c0-0.3,0-0.6-0.1-0.9c3.7-0.2,7.3-0.8,10.1-1.6c0.5-0.2,0.8-0.7,0.7-1.2c-0.2-0.5-0.7-0.8-1.2-0.7c-3,0.8-6.6,1.4-10.5,1.6
		c-0.8-0.9-1.9-1.5-3.2-1.5c-1.3,0-2.5,0.6-3.2,1.5c-2.6-0.2-5.2-0.4-7.5-0.8c-0.5-0.1-1.1,0.2-1.2,0.7c-0.1,0.5,0.2,1.1,0.7,1.2
		c2.1,0.4,4.5,0.7,6.9,0.8c-0.1,0.3-0.1,0.6-0.1,0.9c0,0.8,0.2,1.6,0.7,2.2c-11.5-0.6-19.2-4-19.2-7v-7.2l0,0
		c0.1,0.1,0.2,0.2,0.2,0.2c0.2,0.1,0.2,0.2,0.4,0.3c0.1,0.1,0.2,0.1,0.2,0.2l0,0c0.1,0.1,0.2,0.1,0.2,0.2c0,0,0,0,0.1,0
		c0.1,0.1,0.2,0.1,0.2,0.2l0,0c1.2,0.7,2.6,1.3,4.2,1.9c4.5,1.6,10.6,2.5,17.1,2.5s12.5-0.8,17.1-2.4c1.6-0.6,3-1.2,4.2-1.9l0,0
		c0.1,0,0.2-0.1,0.2-0.2h0.1c0.1,0,0.2-0.1,0.2-0.2l0,0c0.1-0.1,0.2-0.1,0.2-0.2c0.2-0.1,0.2-0.2,0.4-0.3c0.1-0.1,0.2-0.2,0.2-0.2
		l0,0C47.9,18.9,47.9,26,47.9,26z M6.5,19.2c0.8-0.4,2-0.8,3.5-1.2c4.1-1.2,9.5-1.8,15-1.8s10.9,0.7,15,1.8c1.5,0.4,2.7,0.9,3.5,1.2
		C39.5,21,33,22.3,25,22.3S10.5,21,6.5,19.2z M47.9,15.4c0,0.1,0,0.1,0,0.2l0,0c0,0.1,0,0.1,0,0.2c0,0,0,0.1,0,0.2l0,0
		c0,0.1-0.1,0.1-0.1,0.2v0.1c0,0.1,0,0.1-0.1,0.2l0,0c-0.4,0.7-1.2,1.4-1.9,1.9c-1-0.6-2.6-1.3-5-2c-4.3-1.2-9.8-1.9-15.5-1.9
		S14.1,15,9.8,16.2c-2.5,0.7-4,1.4-5,2C4,17.7,3.3,17,2.9,16.3l0,0c0-0.1-0.1-0.1-0.1-0.2V16c0,0,0,0,0-0.1c0,0,0-0.1-0.1-0.1l0,0
		c0-0.1,0-0.1-0.1-0.2c0-0.1,0-0.1,0-0.2l0,0c0-0.1,0-0.1,0-0.2c0-0.1,0-0.1,0-0.2c0-3.4,9.4-7.1,22.8-7.1s22.8,3.8,22.8,7.1
		C47.9,15.2,47.9,15.3,47.9,15.4z"/>
	<path class="st0" d="M40,12.4c0-0.2-0.2-0.3-0.2-0.5c-0.1-0.1-0.1-0.1-0.2-0.1c-0.1-0.1-0.2-0.1-0.3-0.2c-0.2,0-0.2,0-0.4,0
		c-0.1,0-0.1,0-0.2,0.1c-0.1,0-0.1,0.1-0.2,0.1c-0.1,0-0.1,0.1-0.2,0.1c-0.1,0.1-0.1,0.1-0.1,0.2c-0.1,0.1-0.1,0.2-0.2,0.3
		c0,0.1,0,0.2,0,0.2c0,0.1,0,0.2,0,0.2c0,0.2,0.1,0.2,0.2,0.3c0,0.1,0.1,0.1,0.1,0.2c0.1,0.1,0.1,0.1,0.2,0.1c0.1,0,0.1,0.1,0.2,0.1
		c0.1,0,0.1,0.1,0.2,0.1c0.1,0,0.2,0,0.2,0c0.1,0,0.2,0,0.2,0c0.1,0,0.1,0,0.2-0.1c0.1,0,0.1-0.1,0.2-0.1c0.1,0,0.1-0.1,0.2-0.1
		c0.1-0.1,0.1-0.1,0.1-0.2c0.1-0.1,0.1-0.2,0.2-0.3c0-0.1,0-0.2,0-0.2C40,12.6,40,12.5,40,12.4z"/>
	<path class="st0" d="M36.2,11c-3.3-0.7-7.1-1-11-1c-5.3,0-10.5,0.7-14.4,1.8C10.3,12,10,12.5,10.1,13c0.1,0.4,0.5,0.7,0.9,0.7
		c0.1,0,0.2,0,0.2,0c3.9-1.2,8.8-1.8,13.9-1.8c3.7,0,7.4,0.3,10.6,0.9c0.5,0.1,1-0.2,1.2-0.7C37,11.6,36.7,11.1,36.2,11z"/>
	<path class="st0" d="M11.9,27.3c0-0.1,0-0.1-0.1-0.2c0-0.1-0.1-0.1-0.1-0.2c0-0.1-0.1-0.1-0.1-0.2c-0.1-0.1-0.1-0.1-0.2-0.1
		s-0.1-0.1-0.2-0.1c-0.1,0-0.1-0.1-0.2-0.1c-0.2,0-0.2,0-0.4,0c-0.1,0-0.1,0-0.2,0.1c-0.1,0-0.1,0.1-0.2,0.1c-0.1,0-0.1,0.1-0.2,0.1
		c-0.1,0.1-0.1,0.1-0.1,0.2c0,0.1-0.1,0.1-0.1,0.2c0,0.1-0.1,0.1-0.1,0.2s0,0.2,0,0.2c0,0.2,0,0.2,0.1,0.3c0,0.1,0.1,0.1,0.1,0.2
		c0,0.1,0.1,0.1,0.1,0.2c0.1,0.1,0.1,0.1,0.2,0.1c0.1,0,0.1,0.1,0.2,0.1s0.1,0.1,0.2,0.1c0.1,0,0.2,0,0.2,0c0.1,0,0.2,0,0.2,0
		c0.1,0,0.1,0,0.2-0.1c0.1,0,0.1-0.1,0.2-0.1c0.1,0,0.1-0.1,0.2-0.1c0.1-0.1,0.2-0.2,0.2-0.3c0.1-0.1,0.1-0.2,0.1-0.3
		C11.9,27.4,11.9,27.3,11.9,27.3z"/>
</g>
</svg>
