<?xml version="1.0" encoding="utf-8"?>
<!-- Generator: Adobe Illustrator 24.0.0, SVG Export Plug-In . SVG Version: 6.00 Build 0)  -->
<svg version="1.1" id="Layer_1" xmlns="http://www.w3.org/2000/svg" xmlns:xlink="http://www.w3.org/1999/xlink" x="0px" y="0px"
	 viewBox="0 0 60 20" style="enable-background:new 0 0 60 20;" xml:space="preserve">
<style type="text/css">
	.st0{fill:#F1CDB3;}
</style>
<path class="st0" d="M47.7,6.5c0-3.2-2.6-5.9-5.9-5.9c-2.9,0-5.3,2.1-5.8,4.8h-4.7V0c0.6,0,1.3,0,1.9,0l-6.2,0c0.5,0,1.1,0,1.6,0
	v5.4H24c-0.5-2.7-2.9-4.8-5.8-4.8c-3.2,0-5.9,2.6-5.9,5.9c0,1.4,0.5,2.7,1.4,3.8c-0.9,1.1-1.4,2.4-1.4,3.8c0,3.2,2.6,5.9,5.9,5.9
	c2.9,0,5.3-2.1,5.8-4.8h12c0.5,2.7,2.9,4.8,5.8,4.8c3.2,0,5.9-2.6,5.9-5.9c0-1.4-0.5-2.7-1.4-3.8C47.2,9.3,47.7,7.9,47.7,6.5z
	 M43.1,11c0.1,0.2,0.3,0.4,0.4,0.5c0.9,0.6,1.5,1.6,1.5,2.7c0,1.8-1.4,3.2-3.2,3.2c-1.8,0-3.2-1.4-3.2-3.2V14c0-0.2,0-0.4-0.1-0.5
	c-0.1-0.2-0.2-0.3-0.3-0.5c-0.1-0.1-0.3-0.2-0.4-0.3c-0.2-0.1-0.4-0.1-0.5-0.1H22.7c-0.2,0-0.4,0-0.5,0.1c-0.2,0.1-0.3,0.2-0.4,0.3
	c-0.1,0.1-0.2,0.3-0.3,0.5c-0.1,0.2-0.1,0.4-0.1,0.5v0.2c0,1.8-1.4,3.2-3.2,3.2c-1.8,0-3.2-1.4-3.2-3.2c0-1.1,0.5-2.1,1.5-2.7
	c0.2-0.1,0.3-0.3,0.4-0.5c0.1-0.2,0.2-0.4,0.2-0.6c0-0.2-0.1-0.4-0.2-0.6c-0.1-0.2-0.3-0.4-0.4-0.5C15.5,8.6,15,7.6,15,6.5
	c0-1.8,1.4-3.2,3.2-3.2c1.8,0,3.2,1.4,3.2,3.2v0.2c0,0.2,0,0.4,0.1,0.5c0.1,0.2,0.2,0.3,0.3,0.5C21.9,7.9,22,8,22.2,8
	c0.2,0.1,0.4,0.1,0.5,0.1h14.5c0.2,0,0.4,0,0.5-0.1C38,8,38.1,7.9,38.2,7.7c0.1-0.1,0.2-0.3,0.3-0.5c0.1-0.2,0.1-0.4,0.1-0.5V6.5
	c0-1.8,1.4-3.2,3.2-3.2c1.8,0,3.2,1.4,3.2,3.2c0,1.1-0.5,2.1-1.5,2.7c-0.2,0.1-0.3,0.3-0.4,0.5c-0.1,0.2-0.2,0.4-0.2,0.6
	C42.9,10.6,43,10.8,43.1,11z"/>
</svg>
