<?xml version="1.0" encoding="utf-8"?>
<!-- Generator: Adobe Illustrator 24.0.0, SVG Export Plug-In . SVG Version: 6.00 Build 0)  -->
<svg version="1.1" id="Layer_1" xmlns="http://www.w3.org/2000/svg" xmlns:xlink="http://www.w3.org/1999/xlink" x="0px" y="0px"
	 viewBox="0 0 60 60" style="enable-background:new 0 0 60 60;" xml:space="preserve">
<style type="text/css">
	.st0{fill:#F1CDB3;}
</style>
<g id="Layer_3">
	<circle class="st0" cx="30.2" cy="46.3" r="2.4"/>
</g>
<path class="st0" d="M58,20L31,0.2C30.8,0.1,30.5,0,30.3,0s-0.5,0.1-0.7,0.2L2.6,20c-0.5,0.4-0.6,1.1-0.3,1.6l3.5,4.8
	c0.1,0.1,0.2,0.2,0.3,0.3c0.1,0.1,0.3,0.1,0.4,0.2c0.2,0,0.3,0,0.5,0c0.1,0,0.3-0.1,0.4-0.2l1.1-0.8v32.9c0,0.6,0.5,1.2,1.2,1.2
	h41.1c0.6,0,1.2-0.5,1.2-1.2V25.9l1,0.7c0.1,0.1,0.3,0.2,0.4,0.2c0.1,0,0.3,0,0.5,0s0.3-0.1,0.4-0.2c0.1-0.1,0.2-0.2,0.3-0.3
	l3.5-4.8C58.6,21.1,58.5,20.3,58,20z M49.7,53.1H22c-0.6,0-1.2,0.5-1.2,1.2c0,0.6,0.5,1.2,1.2,1.2h27.7v2.2H10.9V25.1h27.4
	c0.6,0,1.2-0.5,1.2-1.2c0-0.6-0.5-1.2-1.2-1.2H12.9L30.3,10l19.4,14.2V53.1z M53.5,24.1L31,7.6c-0.2-0.1-0.4-0.2-0.7-0.2
	c-0.2,0-0.5,0.1-0.7,0.2L7.1,24.1L5,21.2L30.3,2.6l25.3,18.5L53.5,24.1z"/>
<path class="st0" d="M43.8,23.7c0-0.1,0-0.1-0.1-0.2c0-0.1-0.1-0.1-0.1-0.2c0-0.1-0.1-0.1-0.1-0.2c-0.2-0.2-0.5-0.3-0.8-0.3
	c-0.3,0-0.6,0.1-0.8,0.3c-0.1,0.1-0.1,0.1-0.1,0.2c0,0.1-0.1,0.1-0.1,0.2c0,0.1-0.1,0.1-0.1,0.2c0,0.1,0,0.2,0,0.2
	c0,0.1,0,0.2,0,0.2c0,0.1,0,0.1,0.1,0.2c0,0.1,0.1,0.1,0.1,0.2c0,0.1,0.1,0.1,0.1,0.2c0.1,0.1,0.1,0.1,0.2,0.1
	c0.1,0,0.1,0.1,0.2,0.1c0.1,0,0.1,0.1,0.2,0.1c0.1,0,0.2,0,0.2,0c0.1,0,0.2,0,0.2,0c0.1,0,0.1,0,0.2-0.1c0.1,0,0.1-0.1,0.2-0.1
	c0.1,0,0.1-0.1,0.2-0.1c0.1-0.1,0.1-0.1,0.1-0.2c0-0.1,0.1-0.1,0.1-0.2c0-0.1,0.1-0.1,0.1-0.2c0-0.1,0-0.2,0-0.2
	C43.8,23.9,43.8,23.8,43.8,23.7z"/>
<path class="st0" d="M18.9,54c0-0.1,0-0.1-0.1-0.2c0-0.1-0.1-0.1-0.1-0.2c0-0.1-0.1-0.1-0.1-0.2c-0.1-0.1-0.1-0.1-0.2-0.1
	c-0.1-0.1-0.3-0.1-0.4-0.2c-0.2,0-0.3,0-0.5,0c-0.1,0-0.1,0-0.2,0.1c-0.1,0-0.1,0.1-0.2,0.1c-0.1,0-0.1,0.1-0.2,0.1
	c-0.1,0.1-0.1,0.1-0.1,0.2c-0.1,0.1-0.1,0.3-0.2,0.4c0,0.1,0,0.2,0,0.2c0,0.2,0,0.3,0.1,0.4c0,0.1,0.1,0.1,0.1,0.2
	c0,0.1,0.1,0.1,0.1,0.2c0.1,0.1,0.1,0.1,0.2,0.1c0.1,0,0.1,0.1,0.2,0.1c0.1,0,0.1,0.1,0.2,0.1c0.1,0,0.2,0,0.2,0
	c0.2,0,0.5-0.1,0.7-0.2c0.1,0,0.1-0.1,0.2-0.1c0.1-0.1,0.1-0.1,0.1-0.2c0.1-0.2,0.2-0.4,0.2-0.7C18.9,54.2,18.9,54.1,18.9,54z"/>
<path class="st0" d="M44.8,30.6c0-1-0.4-1.9-1.1-2.6c-0.7-0.7-1.7-1.1-2.6-1.1c-0.3,0-0.6,0-0.9,0.1c-2.2,0.6-4.3,1.3-6.3,2.2
	c-1.2-0.3-2.4-0.4-3.6-0.4c-0.7,0-1.4,0-2,0.1c-0.5,0.1-1,0.2-1.5,0.3c-2-0.9-4.2-1.6-6.3-2.2c0,0,0,0,0,0c-1.2-0.3-2.3,0-3.3,0.7
	c-0.9,0.8-1.4,1.9-1.3,3.1c0.1,1.2,0.2,2.4,0.4,3.6c0.2,1.1,0.4,2.2,0.6,3.2c-0.4,0.9-0.6,1.9-0.8,2.9c-0.1,0.4-0.1,0.8-0.1,1.2
	c0,5.2,4.6,9.5,10.2,9.5h8.5c3.1,0,6-1.3,7.9-3.5c1.8-2,2.6-4.6,2.2-7.2c-0.1-0.6-0.2-1.1-0.3-1.7c-0.1-0.4-0.3-0.8-0.4-1.2
	c0.5-2.3,0.8-4.6,1-6.9C44.8,30.7,44.8,30.6,44.8,30.6z M42.5,30.6L42.5,30.6c-0.1,2.3-0.5,4.6-1,6.8c-0.1,0.2,0,0.5,0.1,0.7
	c0.2,0.4,0.3,0.9,0.5,1.3c0.1,0.4,0.2,0.9,0.3,1.4c0.3,1.9-0.3,3.9-1.6,5.4c-1.5,1.7-3.7,2.7-6.1,2.7h-8.5c-4.3,0-7.9-3.2-7.9-7.2
	c0-0.3,0-0.6,0.1-0.9c0.1-0.9,0.4-1.8,0.7-2.6c0.1-0.2,0.1-0.5,0.1-0.7c-0.3-1.1-0.5-2.2-0.6-3.4c-0.2-1.1-0.3-2.3-0.3-3.4
	c0-0.4,0.2-0.8,0.5-1.1c0.2-0.2,0.5-0.3,0.9-0.3c0.1,0,0.2,0,0.3,0l0,0c2.2,0.6,4.3,1.3,6.4,2.2c0.2,0.1,0.5,0.1,0.8,0.1
	c0.5-0.1,1.1-0.3,1.7-0.3c0.6-0.1,1.1-0.1,1.7-0.1c1.1,0,2.3,0.1,3.4,0.4c0.3,0.1,0.5,0,0.8-0.1c2.1-0.9,4.2-1.7,6.4-2.2
	c0.1,0,0.2,0,0.3,0h0c0.4,0,0.7,0.1,1,0.4c0.1,0.1,0.2,0.3,0.3,0.4C42.5,30.2,42.5,30.4,42.5,30.6C42.5,30.6,42.5,30.6,42.5,30.6z"
	/>
<path class="st0" d="M32.5,43.6c-0.6,0-1-0.5-1-1c0-0.6-0.5-1.2-1.2-1.2s-1.2,0.5-1.2,1.2v0c0,0.6-0.5,1-1,1c-0.6,0-1.2,0.5-1.2,1.2
	c0,0.6,0.5,1.2,1.2,1.2c0.9,0,1.6-0.3,2.2-0.8c0.6,0.5,1.4,0.8,2.2,0.8c0.6,0,1.2-0.5,1.2-1.2C33.7,44.1,33.1,43.6,32.5,43.6z"/>
<path class="st0" d="M26.2,38.2l-1.7-0.8c-0.2-0.1-0.3-0.1-0.5-0.1c-0.2,0-0.3,0-0.5,0.1l-1.7,0.8c-0.6,0.3-0.8,1-0.6,1.6
	c0.1,0.1,0.2,0.3,0.3,0.4c0.1,0.1,0.2,0.2,0.4,0.2s0.3,0.1,0.5,0.1c0.2,0,0.3,0,0.4-0.1l1.3-0.6l1.3,0.6c0.6,0.3,1.3,0,1.6-0.6
	C27,39.1,26.8,38.4,26.2,38.2z"/>
<path class="st0" d="M38.8,38.2l-1.7-0.8c-0.2-0.1-0.3-0.1-0.5-0.1c-0.2,0-0.3,0-0.5,0.1l-1.7,0.8c-0.6,0.3-0.8,1-0.6,1.6
	c0.3,0.6,1,0.8,1.6,0.6l1.3-0.6l1.3,0.6c0.2,0.1,0.3,0.1,0.5,0.1c0.4,0,0.9-0.3,1.1-0.7C39.7,39.1,39.4,38.4,38.8,38.2z"/>
<path class="st0" d="M26.1,38.2l-1.7-0.8c-0.2-0.1-0.3-0.1-0.5-0.1s-0.3,0-0.5,0.1l-1.7,0.8c-0.6,0.3-0.8,1-0.6,1.6
	c0.1,0.1,0.2,0.3,0.3,0.4c0.1,0.1,0.2,0.2,0.4,0.2s0.3,0.1,0.5,0.1s0.3,0,0.4-0.1l1.3-0.6l1.3,0.6c0.6,0.3,1.3,0,1.6-0.6
	C26.9,39.1,26.7,38.4,26.1,38.2z"/>
<path class="st0" d="M38.7,38.2L37,37.4c-0.2-0.1-0.3-0.1-0.5-0.1s-0.3,0-0.5,0.1l-1.7,0.8c-0.6,0.3-0.8,1-0.6,1.6
	c0.3,0.6,1,0.8,1.6,0.6l1.3-0.6l1.3,0.6c0.2,0.1,0.3,0.1,0.5,0.1c0.4,0,0.9-0.3,1.1-0.7C39.6,39.1,39.3,38.4,38.7,38.2z"/>
<g id="Layer_2_1_">
	<ellipse class="st0" cx="36.5" cy="38.6" rx="0.9" ry="1.3"/>
	<ellipse class="st0" cx="23.9" cy="38.6" rx="0.9" ry="1.3"/>
</g>
</svg>
