<?xml version="1.0" encoding="utf-8"?>
<!-- Generator: Adobe Illustrator 24.0.0, SVG Export Plug-In . SVG Version: 6.00 Build 0)  -->
<svg version="1.1" id="Layer_1" xmlns="http://www.w3.org/2000/svg" xmlns:xlink="http://www.w3.org/1999/xlink" x="0px" y="0px"
	 viewBox="0 0 50 15" style="enable-background:new 0 0 50 15;" xml:space="preserve">
<style type="text/css">
	.st0{fill:#F1CDB3;}
</style>
<path class="st0" d="M38.5,4.8c0-2.4-1.9-4.3-4.3-4.3c-2.1,0-3.9,1.5-4.3,3.5h-3.4V0c0.5,0,0.9,0,1.4,0l-4.5,0c0.4,0,0.8,0,1.2,0v4
	h-3.4c-0.4-2-2.1-3.5-4.3-3.5c-2.4,0-4.3,1.9-4.3,4.3c0,1,0.4,2,1,2.8c-0.7,0.8-1,1.8-1,2.8c0,2.4,1.9,4.3,4.3,4.3
	c2.1,0,3.9-1.5,4.3-3.5h8.8c0.4,2,2.1,3.5,4.3,3.5c2.4,0,4.3-1.9,4.3-4.3c0-1-0.4-2-1-2.8C38.1,6.8,38.5,5.8,38.5,4.8z M35.1,8.1
	c0.1,0.1,0.2,0.3,0.3,0.4c0.7,0.4,1.1,1.2,1.1,2c0,1.3-1.1,2.3-2.3,2.3c-1.3,0-2.3-1.1-2.3-2.3v-0.1c0-0.1,0-0.3-0.1-0.4
	c0-0.1-0.1-0.2-0.2-0.3c-0.1-0.1-0.2-0.2-0.3-0.2c-0.1-0.1-0.3-0.1-0.4-0.1H20.2c-0.1,0-0.3,0-0.4,0.1c-0.1,0.1-0.2,0.1-0.3,0.2
	c-0.1,0.1-0.2,0.2-0.2,0.3c-0.1,0.1-0.1,0.3-0.1,0.4v0.1c0,1.3-1.1,2.3-2.3,2.3c-1.3,0-2.3-1.1-2.3-2.3c0-0.8,0.4-1.5,1.1-2
	c0.1-0.1,0.2-0.2,0.3-0.4C16,7.9,16,7.8,16,7.6c0-0.2,0-0.3-0.1-0.5c-0.1-0.1-0.2-0.3-0.3-0.4c-0.7-0.4-1.1-1.2-1.1-2
	c0-1.3,1.1-2.3,2.3-2.3c1.3,0,2.3,1.1,2.3,2.3v0.1c0,0.1,0,0.3,0.1,0.4c0,0.1,0.1,0.2,0.2,0.3c0.1,0.1,0.2,0.2,0.3,0.2
	C19.9,6,20,6,20.2,6h10.7c0.1,0,0.3,0,0.4-0.1c0.1-0.1,0.2-0.1,0.3-0.2c0.1-0.1,0.2-0.2,0.2-0.3c0.1-0.1,0.1-0.3,0.1-0.4V4.8
	c0-1.3,1.1-2.3,2.3-2.3c1.3,0,2.3,1.1,2.3,2.3c0,0.8-0.4,1.5-1.1,2c-0.1,0.1-0.2,0.2-0.3,0.4C35.1,7.3,35,7.4,35,7.6
	C35,7.8,35.1,7.9,35.1,8.1z"/>
</svg>
