<?xml version="1.0" encoding="utf-8"?>
<!-- Generator: Adobe Illustrator 24.0.0, SVG Export Plug-In . SVG Version: 6.00 Build 0)  -->
<svg version="1.1" xmlns="http://www.w3.org/2000/svg" xmlns:xlink="http://www.w3.org/1999/xlink" x="0px" y="0px"
	 viewBox="0 0 60 60" style="enable-background:new 0 0 60 60;" xml:space="preserve">
<style type="text/css">
	.st0{fill:#F1CDB3;}
	.st1{fill:none;}
</style>
<g id="Layer_1">
	<path class="st0" d="M31.2,35.3l-7.6,7.6c-0.5,0.5-0.5,1.2,0,1.7c0.2,0.2,0.5,0.3,0.8,0.3c0.3,0,0.6-0.1,0.8-0.3l7.6-7.6L31.2,35.3
		z M31.2,35.3l-7.6,7.6c-0.5,0.5-0.5,1.2,0,1.7c0.2,0.2,0.5,0.3,0.8,0.3c0.3,0,0.6-0.1,0.8-0.3l7.6-7.6L31.2,35.3z M31.2,35.3
		l-7.6,7.6c-0.5,0.5-0.5,1.2,0,1.7c0.2,0.2,0.5,0.3,0.8,0.3c0.3,0,0.6-0.1,0.8-0.3l7.6-7.6L31.2,35.3z M51.4,28.6l-7.2-7.2l0.1-0.1
		l-1.7-1.7l-0.1,0.1l-2.4-2.4l0.1-0.1l-1.7-1.7l-0.1,0.1l-5.5-5.4l-1.7-1.7c-0.5-0.5-1.2-0.5-1.7,0L25,13.3
		c-0.2,0.2-0.3,0.5-0.3,0.8s0.1,0.6,0.3,0.8l1.5,1.5L7.1,35.9c-1.8,1.8-1.8,4.7,0,6.5l1.5,1.5l-2.7,2.7c-0.1,0.1-0.2,0.2-0.3,0.4
		c-0.1,0.1-0.1,0.3-0.1,0.5c0,0.2,0,0.3,0.1,0.5s0.1,0.3,0.3,0.4l2.1,2.1L0.3,58c-0.5,0.5-0.5,1.2,0,1.7C0.6,59.9,0.9,60,1.2,60
		c0.3,0,0.6-0.1,0.8-0.3L9.6,52l2.1,2.1c0.2,0.2,0.5,0.3,0.8,0.3s0.6-0.1,0.8-0.3l2.7-2.7l1.5,1.5c0.9,0.9,2,1.4,3.2,1.4
		c1.2,0,2.4-0.5,3.2-1.4l19.4-19.4L45,35c0.1,0.1,0.2,0.2,0.4,0.3c0.1,0.1,0.3,0.1,0.4,0.1c0.3,0,0.6-0.1,0.8-0.3l4.8-4.8
		c0.2-0.2,0.3-0.5,0.3-0.8S51.7,28.8,51.4,28.6z M12.6,51.7l-4.3-4.3l1.9-1.9l4.3,4.3L12.6,51.7z M36.5,37.2l-1.8,1.7h0L33.7,40
		L22.4,51.3c-0.9,0.9-2.3,0.9-3.2,0L8.7,40.7c-0.9-0.9-0.9-2.3,0-3.2l1.7-1.7l2.9,2.9c0.2,0.2,0.5,0.3,0.8,0.3
		c0.3,0,0.6-0.1,0.8-0.3c0.5-0.5,0.5-1.2,0-1.7L12,34.2l1.9-1.9l5.4,5.4c0.2,0.2,0.5,0.3,0.8,0.3c0.3,0,0.6-0.1,0.8-0.3
		c0.5-0.5,0.5-1.2,0-1.7l-5.4-5.4l0,0l1.9-1.9l0,0l2.8,2.8c0.2,0.2,0.5,0.4,0.8,0.4c0.3,0,0.6-0.1,0.8-0.4c0.5-0.4,0.5-1.2,0-1.6
		l-2.8-2.8l0,0l1.3-1.3l0.4-0.4l0.2-0.1l1.7-1.7l0.1-0.1l1.9-1.9l5.4,5.4c0.1,0.1,0.2,0.2,0.4,0.3c0.1,0.1,0.3,0.1,0.4,0.1
		c0.3,0,0.6-0.1,0.8-0.3c0.5-0.5,0.5-1.2,0-1.7l-5.4-5.4l1.8-1.8l10.1,10.1l-5.3,5.3l1.7,1.7l5.3-5.3l2,2L36.5,37.2L36.5,37.2z
		 M45.8,32.5L27.5,14.1l3.1-3.1l10.6,10.6l1.7,1.7l6.2,6.2L45.8,32.5z M23.6,42.9c-0.5,0.5-0.5,1.2,0,1.7c0.2,0.2,0.5,0.3,0.8,0.3
		c0.3,0,0.6-0.1,0.8-0.3l7.6-7.6l-1.7-1.7L23.6,42.9z M31.2,35.3l-7.6,7.6c-0.5,0.5-0.5,1.2,0,1.7c0.2,0.2,0.5,0.3,0.8,0.3
		c0.3,0,0.6-0.1,0.8-0.3l7.6-7.6L31.2,35.3z M31.2,35.3l-7.6,7.6c-0.5,0.5-0.5,1.2,0,1.7c0.2,0.2,0.5,0.3,0.8,0.3
		c0.3,0,0.6-0.1,0.8-0.3l7.6-7.6L31.2,35.3z"/>
	<path class="st0" d="M54.8,21.2L39.2,5.6c-0.5-0.5-1.2-0.5-1.7,0l-4.1,4.1c-0.2,0.2-0.3,0.5-0.3,0.8s0.1,0.6,0.3,0.8l4.9,4.9
		l-4.6,4.6l1.7,1.7L40,18l2.4,2.4l-4.6,4.6l1.7,1.7L44,22L49,27c0.1,0.1,0.2,0.2,0.4,0.3c0.1,0.1,0.3,0.1,0.5,0.1
		c0.3,0,0.6-0.1,0.8-0.3l4.1-4.1C55.2,22.4,55.2,21.6,54.8,21.2z M49.8,24.5L35.9,10.6l2.5-2.5L52.3,22L49.8,24.5z"/>
	<path class="st0" d="M22.3,46.7c0-0.1,0-0.1-0.1-0.2c0-0.1-0.1-0.1-0.1-0.2c0-0.1-0.1-0.1-0.1-0.2c-0.1-0.1-0.1-0.1-0.2-0.1
		c-0.1,0-0.1-0.1-0.2-0.1c-0.1,0-0.1-0.1-0.2-0.1c-0.2,0-0.3,0-0.5,0c-0.1,0-0.1,0-0.2,0.1c-0.1,0-0.1,0.1-0.2,0.1
		c-0.1,0-0.1,0.1-0.2,0.1c-0.1,0.1-0.1,0.1-0.1,0.2c0,0.1-0.1,0.1-0.1,0.2c0,0.1-0.1,0.1-0.1,0.2c0,0.1,0,0.2,0,0.2
		c0,0.1,0,0.2,0,0.2c0,0.1,0,0.1,0.1,0.2c0,0.1,0.1,0.1,0.1,0.2c0,0.1,0.1,0.1,0.1,0.2c0.1,0.1,0.2,0.2,0.4,0.3
		c0.1,0.1,0.3,0.1,0.4,0.1c0.2,0,0.3,0,0.4-0.1c0.1-0.1,0.3-0.1,0.4-0.3c0.1-0.1,0.1-0.1,0.1-0.2c0-0.1,0.1-0.1,0.1-0.2
		c0-0.1,0.1-0.1,0.1-0.2c0-0.1,0-0.2,0-0.2C22.3,46.9,22.3,46.8,22.3,46.7z"/>
</g>
<g id="Layer_2">
	<polyline class="st1" points="14.2,32.1 15.6,30.7 17.6,28.8 19.3,27.1 21.2,25.2 	"/>
	<polyline class="st1" points="22.9,23.6 24.8,21.6 26.5,20 27.7,18.8 	"/>
	<polyline class="st1" points="27.8,45.8 33.7,40 34.8,38.9 	"/>
	<line class="st1" x1="41.2" y1="32.6" x2="36.6" y2="37.2"/>
	<line class="st1" x1="24.3" y1="28.5" x2="31.2" y2="35.3"/>
	<line class="st1" x1="34.8" y1="38.9" x2="32.8" y2="37"/>
	<polyline class="st1" points="34.8,38.9 36.5,40.6 37.4,41.5 37.7,41.8 	"/>
	<polygon class="st0" points="21.9,51.8 20.2,53.5 20.2,53.5 20.2,53.5 20.2,53.5 18.2,51.5 18.2,51.5 16.5,49.9 16.6,49.8 
		6.5,39.8 8.2,38.1 18.2,48.2 18.3,48.1 19.9,49.8 19.9,49.8 21.9,51.8 21.9,51.8 	"/>
	<polygon class="st0" points="39.9,29.8 31.2,38.5 29.6,36.9 38.3,28.2 	"/>
	<line class="st1" x1="32.9" y1="33.5" x2="25.6" y2="26.2"/>
	<line class="st1" x1="36.5" y1="37.2" x2="34.6" y2="35.2"/>
	<polyline class="st1" points="36.6,37.2 38.2,38.8 38.9,39.6 	"/>
	<polyline class="st1" points="24.1,28.2 24.3,28.5 31.2,35.3 	"/>
	<line class="st1" x1="34.8" y1="38.9" x2="32.8" y2="37"/>
	<polyline class="st1" points="34.8,38.9 36.5,40.6 37.4,41.5 	"/>
	<line class="st1" x1="48.4" y1="49.3" x2="45.9" y2="46.8"/>
	<line class="st1" x1="44.2" y1="45.2" x2="42.3" y2="43.3"/>
	<polygon class="st0" points="33.2,33.9 31.5,35.7 31.1,35.3 32.9,33.5 	"/>
	<polygon class="st0" points="36.9,37.5 35.1,39.3 34.8,38.9 36.6,37.1 	"/>
	<line class="st1" x1="21.1" y1="25.2" x2="20.5" y2="25.7"/>
	<line class="st1" x1="23.1" y1="23.2" x2="22.8" y2="23.5"/>
	<line class="st1" x1="21" y1="25.3" x2="21.1" y2="25.1"/>
	<line class="st1" x1="22.9" y1="23.4" x2="22.8" y2="23.5"/>
</g>
</svg>
